<?xml version="1.0" encoding="UTF-8" standalone="no"?>
<!DOCTYPE svg PUBLIC "-//W3C//DTD SVG 1.1//EN" "http://www.w3.org/Graphics/SVG/1.1/DTD/svg11.dtd">
<svg width="100%" height="100%" viewBox="0 0 1600 1200" version="1.1" xmlns="http://www.w3.org/2000/svg" xmlns:xlink="http://www.w3.org/1999/xlink" xml:space="preserve" xmlns:serif="http://www.serif.com/" style="fill-rule:evenodd;clip-rule:evenodd;">
    <g transform="matrix(1,0,0,1,127,84)">
        <g id="Page-1">
            <g id="hugo">
                <path id="Shape" d="M28.4,912.2C77.6,914.4 126.8,915.5 176,915.4C177.9,915.4 177.9,912.4 176,912.4C126.8,912.5 77.6,911.4 28.4,909.2C26.5,909.1 26.5,912.1 28.4,912.2ZM179,837.8C186.7,866.7 193.9,895.8 200.5,925C200.9,926.9 203.8,926.1 203.4,924.2C196.7,895 189.6,865.9 181.9,837C181.4,835.2 178.5,836 179,837.8ZM313,840C310.2,867.5 307.4,895.1 304.7,922.6C304.5,924.5 307.5,924.5 307.7,922.6C310.5,895.1 313.3,867.5 316,840C316.1,838.1 313.1,838.1 313,840Z" style="fill:rgb(232,232,232);fill-rule:nonzero;"/>
                <path id="Shape1" serif:id="Shape" d="M201.3,927.7C218.8,930.8 236.5,932.2 254.3,931.7C271.3,931.2 289.9,929.9 306.1,924.5C307.9,923.9 307.1,921 305.3,921.6C289.2,926.9 271.1,928.2 254.3,928.7C236.8,929.2 219.3,927.8 202.1,924.8C200.2,924.4 199.4,927.3 201.3,927.7ZM180.2,838.8C200.9,844.6 223.4,844.7 244.8,844.8C267.8,845 290.8,843.7 313.6,841.1C315.5,840.9 315.5,837.9 313.6,838.1C291.4,840.7 269.1,841.9 246.8,841.8C225.1,841.7 202.1,841.7 181,835.9C179.1,835.4 178.3,838.3 180.2,838.8Z" style="fill:rgb(232,232,232);fill-rule:nonzero;"/>
                <path id="Path" d="M171.6,828.5C171.8,830.4 172,832.4 172.2,834.3C172.3,835.5 172.3,837 172.8,838.1C174,840.7 178,839.8 180.3,839.8C182.2,839.8 182.2,836.8 180.3,836.8L176.9,836.8C175.4,836.8 175.4,836.5 175.3,835C175.1,832.8 174.9,830.7 174.7,828.5C174.4,826.6 171.4,826.5 171.6,828.5Z" style="fill:rgb(232,232,232);fill-rule:nonzero;"/>
                <path id="Shape2" serif:id="Shape" d="M173.6,830.1C198.6,833 223.7,834.4 248.9,834.6C261.3,834.7 273.7,834.5 286.2,834.1C292.4,833.9 298.6,833.6 304.8,833.3C307.7,833.2 311.7,832.2 314.6,832.8C318.1,833.4 317.9,836.4 318.3,839.5C318.6,838.9 319,838.3 319.3,837.7L315.4,837.7C313.5,837.3 312.7,840.2 314.6,840.6C316.6,841 318.1,841 320,840.6C320.9,840.4 321.2,839.5 321,838.8C320.5,835.3 320.9,830.9 316.7,830C314.2,829.4 311.1,830.1 308.5,830.2C305.2,830.4 302,830.5 298.7,830.7C284.7,831.3 270.6,831.7 256.5,831.7C228.7,831.7 201,830.4 173.4,827.1C171.7,826.9 171.7,829.9 173.6,830.1ZM195.3,902.8C203.3,913.3 212.7,922.4 223.3,930.2C224.9,931.3 226.4,928.7 224.8,927.6C214.6,920.1 205.5,911.3 197.8,901.2C196.7,899.7 194.1,901.2 195.3,902.8ZM188.6,872.3C204.2,894.8 223.4,914.5 245.6,930.6C247.2,931.7 248.7,929.1 247.1,928C225.4,912.2 206.5,892.8 191.2,870.8C190.1,869.2 187.5,870.7 188.6,872.3ZM182.5,845.5C209.5,877.5 239.5,907.4 275.3,929.6C276.9,930.6 278.5,928 276.8,927C241.2,905 211.4,875.3 184.6,843.4C183.4,841.9 181.3,844.1 182.5,845.5ZM211.2,843.8C236.9,873.7 265.4,902.1 297.2,925.5C298.8,926.6 300.3,924 298.7,922.9C267.1,899.7 238.8,871.3 213.3,841.7C212,840.2 209.9,842.3 211.2,843.8ZM244,845.9C261.4,867.2 281.4,886.2 303.6,902.5C305.2,903.6 306.7,901 305.1,899.9C283.1,883.8 263.3,864.9 246.1,843.8C244.9,842.3 242.8,844.4 244,845.9ZM270.8,844.8C282,857.4 294.8,868.2 309,877.3C310.6,878.3 312.1,875.7 310.5,874.7C296.5,865.8 283.9,855 272.9,842.7C271.6,841.2 269.5,843.3 270.8,844.8Z" style="fill:rgb(232,232,232);fill-rule:nonzero;"/>
                <path id="Path1" serif:id="Path" d="M132.4,680C138.9,693.7 143.3,708.1 145.8,723.1C145.9,723.8 146.6,724.2 147.2,724.2C147.8,724.2 151,724.1 151.2,725.1C151.3,725.5 149.3,727.8 149.1,728.3C148.5,729.9 148.5,731.8 149.1,733.4C149.9,735.3 151.4,736.6 153.2,737.3C153.8,737.6 154.5,737.7 155.2,737.8C155.8,737.9 156.4,737.9 157,737.8C157.8,737.7 157.7,737.8 156.8,738.2C155.8,739.7 154.4,739.9 154,742.1C153.7,744.2 154.7,746.2 155.5,748C158.8,755 160.7,762.4 163.4,769.7C172.7,794.5 190.5,815 210.6,831.9C212.1,833.1 214.2,831 212.7,829.8C192,812.4 173.6,791.1 164.9,765C163.8,761.6 162.8,758.2 161.6,754.9C160.6,752 158.7,749 157.8,746.1C156.8,744.5 156.9,742.7 158.2,740.9L159.4,740C159.7,739.5 160.3,739.2 160.6,738.6C161,737.5 160.7,736.5 159.9,735.7C158.6,734.4 156.6,735.1 154.9,734.6C148.4,732.7 153.7,728.3 154.2,725.1C154.9,720.9 149.7,721.4 146.9,721.2C147.4,721.6 147.9,721.9 148.3,722.3C145.8,707.1 141.2,692.4 134.6,678.5C134.2,676.7 131.6,678.2 132.4,680Z" style="fill:rgb(232,232,232);fill-rule:nonzero;"/>
                <path id="Path2" serif:id="Path" d="M133.5,679.3C166,688 194.5,710.1 215.2,736.3C237.2,764.1 250.9,797.5 258.3,832C258.7,833.9 261.6,833.1 261.2,831.2C253.7,796.2 239.7,762.4 217.4,734.2C196.4,707.7 167.4,685.3 134.4,676.5C132.4,675.9 131.6,678.8 133.5,679.3Z" style="fill:rgb(232,232,232);fill-rule:nonzero;"/>
                <path id="Path3" serif:id="Path" d="M145.3,691.7C185.1,730.4 215.8,777.9 234.7,830.2C235.4,832 238.3,831.2 237.6,829.4C218.5,776.7 187.6,728.7 147.4,689.6C146.1,688.2 143.9,690.3 145.3,691.7Z" style="fill:rgb(232,232,232);fill-rule:nonzero;"/>
                <path id="Shape3" serif:id="Shape" d="M163,754.6C171.4,755.5 179.6,757.4 187.4,760.5C195,763.5 203.3,767.3 208.1,774.2C209.2,775.8 211.8,774.3 210.7,772.7C205.9,765.8 198.4,761.9 190.8,758.7C181.9,754.9 172.6,752.6 162.9,751.6C161.1,751.4 161.1,754.4 163,754.6ZM177.9,699.8C177.8,711.3 179.7,722.6 183.4,733.5C184,735.3 186.9,734.5 186.3,732.7C182.7,722.1 180.9,711.1 180.9,699.8C180.9,697.9 177.9,697.9 177.9,699.8ZM232.8,754.2C237.7,735.9 254,725 267.9,713.8C282.7,701.9 297,689.2 310.6,676C309.8,675.5 308.9,675 308.1,674.5C303.6,686.6 302.7,699.3 302.9,712.1C303.1,724.9 306,739.6 301.9,752C302.4,751.6 302.9,751.3 303.3,750.9C300.1,751.1 296.9,751.4 293.7,751.6C292.7,751.7 291.7,752.9 292.4,753.9C294.7,757 297.4,758 297.3,762.6C297.3,765.8 296.5,769.5 295.4,772.5C294.3,775.6 291.4,777.7 290.4,780.6C289.6,783.2 291.6,785.4 291.6,788C291.7,792.3 288.6,795.9 286.4,799.3C284.3,802.5 282.4,805.8 280.7,809.2C277.3,815.9 274.6,822.8 272.6,830C272.1,831.9 275,832.7 275.5,830.8C278,821.9 281.6,813.3 286.3,805.3C289.5,799.9 295.5,793.6 294.8,786.8C294.5,784.1 293.1,783.3 294.3,780.2C294.4,780.1 296.2,777.7 296.3,777.5C298.2,774.4 299.1,770.9 299.7,767.4C300.1,764.8 300.9,761.6 300.5,759C299.9,755.3 297.1,755 295,752.2C294.6,753 294.1,753.7 293.7,754.5C296.9,754.3 300.1,754 303.3,753.8C304,753.7 304.5,753.4 304.7,752.7C308.5,741.1 306.2,727.6 305.8,715.6C305.4,701.9 305.9,688.1 310.8,675.1C311.4,673.6 309.3,672.7 308.3,673.6C293.8,687.7 278.6,701.2 262.7,713.8C249.1,724.6 234.4,735.6 229.7,753.2C229.4,755.3 232.3,756.1 232.8,754.2Z" style="fill:rgb(232,232,232);fill-rule:nonzero;"/>
                <path id="Path4" serif:id="Path" d="M299.5,689C289.7,706.1 279.7,723 270.3,740.3C261.5,756.3 253.7,772.9 250,790.8C249.6,792.7 252.5,793.5 252.9,791.6C256.7,773.3 264.8,756.5 273.8,740.2C283,723.5 292.7,707.1 302.1,690.5C303,688.9 300.4,687.3 299.5,689Z" style="fill:rgb(232,232,232);fill-rule:nonzero;"/>
                <path id="Shape4" serif:id="Shape" d="M270,716.8C271.3,722.5 271.9,728.2 271.7,734C271.6,735.9 274.6,735.9 274.7,734C274.9,727.9 274.3,722 272.9,716C272.4,714.1 269.6,714.9 270,716.8ZM286.3,697.7C287.4,702 287.6,706.2 287.1,710.5C286.9,712.4 289.9,712.4 290.1,710.5C290.7,705.9 290.4,701.4 289.2,696.9C288.7,695.1 285.8,695.9 286.3,697.7ZM287,717.6C292.9,714.1 299,711 305.3,708.4C307.1,707.7 306.3,704.8 304.5,705.5C297.9,708.2 291.6,711.4 285.4,715C283.8,716 285.3,718.6 287,717.6ZM261.2,767.8C265,764.6 268.8,761.5 272.7,758.5C276.8,755.3 281.3,751 286.3,749C288.1,748.3 287.3,745.4 285.5,746.1C281,747.8 277.3,751.1 273.5,754.1C268.6,757.9 263.8,761.7 259.1,765.7C257.6,766.9 259.7,769 261.2,767.8ZM145.4,711.7C152.4,712.4 159.4,713.1 166.4,713.7C168.3,713.9 168.3,710.9 166.4,710.7C159.4,710 152.4,709.3 145.4,708.7C143.5,708.5 143.5,711.5 145.4,711.7ZM328.9,911.2L810.6,911.2C812.5,911.2 812.5,908.2 810.6,908.2L328.9,908.2C326.9,908.2 326.9,911.2 328.9,911.2ZM752.7,666.2L752.7,710C752.7,711.9 755.7,711.9 755.7,710L755.7,666.2C755.7,664.3 752.7,664.3 752.7,666.2ZM683.7,716.7L829.2,716.7C831.1,716.7 831.1,713.7 829.2,713.7L683.7,713.7C681.8,713.7 681.7,716.7 683.7,716.7Z" style="fill:rgb(232,232,232);fill-rule:nonzero;"/>
                <path id="Shape5" serif:id="Shape" d="M716.3,717.5L716.3,755.4C716.3,757.3 719.3,757.3 719.3,755.4L719.3,717.5C719.3,715.5 716.3,715.5 716.3,717.5ZM791.3,716.7L791.3,750.1C791.3,752 794.3,752 794.3,750.1L794.3,716.7C794.3,714.8 791.3,714.8 791.3,716.7ZM743.8,758.3L855.1,758.3C857,758.3 857,755.3 855.1,755.3L743.8,755.3C741.9,755.3 741.9,758.3 743.8,758.3ZM659.9,940.2L905.6,940.2C907.5,940.2 907.5,937.2 905.6,937.2L659.9,937.2C658,937.2 658,940.2 659.9,940.2ZM998.6,914.3L1307.7,914.3C1309.6,914.3 1309.6,911.3 1307.7,911.3L998.6,911.3C996.7,911.3 996.7,914.3 998.6,914.3ZM1.7,965.5L249,965.5C250.9,965.5 250.9,962.5 249,962.5L1.7,962.5C-0.2,962.5 -0.2,965.5 1.7,965.5ZM167.9,995.5L369.8,995.5C371.7,995.5 371.7,992.5 369.8,992.5L167.9,992.5C165.9,992.5 165.9,995.5 167.9,995.5ZM1191,140.5L1191,56.9C1191,55 1188,55 1188,56.9L1188,140.5C1188,142.4 1191,142.4 1191,140.5Z" style="fill:rgb(232,232,232);fill-rule:nonzero;"/>
                <path id="Path5" serif:id="Path" d="M1190.5,56.3L1298.8,56.3C1300.7,56.3 1300.7,53.3 1298.8,53.3L1190.5,53.3C1188.6,53.3 1188.6,56.3 1190.5,56.3Z" style="fill:rgb(232,232,232);fill-rule:nonzero;"/>
                <path id="Path6" serif:id="Path" d="M1297.3,55C1297.1,83.3 1296.9,111.6 1296.6,139.9C1296.6,141.8 1299.6,141.8 1299.6,139.9C1299.8,111.6 1300,83.3 1300.3,55C1300.3,53.1 1297.3,53.1 1297.3,55Z" style="fill:rgb(232,232,232);fill-rule:nonzero;"/>
                <path id="Shape6" serif:id="Shape" d="M1191,142L1297.8,142C1299.7,142 1299.7,139 1297.8,139L1191,139C1189.1,139 1189.1,142 1191,142ZM1193.9,62.7L1193.9,133.1C1193.9,135 1196.9,135 1196.9,133.1L1196.9,62.7C1196.9,60.8 1193.9,60.8 1193.9,62.7Z" style="fill:rgb(232,232,232);fill-rule:nonzero;"/>
                <path id="Path7" serif:id="Path" d="M1196.1,64.2L1290.8,64.2C1292.7,64.2 1292.7,61.2 1290.8,61.2L1196.1,61.2C1194.1,61.2 1194.1,64.2 1196.1,64.2Z" style="fill:rgb(232,232,232);fill-rule:nonzero;"/>
                <path id="Path8" serif:id="Path" d="M1289.2,63.4L1288.9,132.5C1288.9,134.4 1291.9,134.4 1291.9,132.5L1292.2,63.4C1292.2,61.5 1289.2,61.5 1289.2,63.4Z" style="fill:rgb(232,232,232);fill-rule:nonzero;"/>
                <path id="Shape7" serif:id="Shape" d="M1196.7,135L1290,135C1291.9,135 1291.9,132 1290,132L1196.7,132C1194.8,132 1194.8,135 1196.7,135ZM1196.1,114.3C1207.6,110.3 1219.7,113.9 1230.9,117.2C1242.3,120.5 1253.5,124.5 1264.4,129.1C1266.2,129.8 1267,126.9 1265.2,126.2C1253.1,121.1 1240.7,116.8 1228.1,113.3C1217.4,110.4 1206.1,107.6 1195.3,111.4C1193.5,112 1194.3,114.9 1196.1,114.3Z" style="fill:rgb(232,232,232);fill-rule:nonzero;"/>
                <path id="Shape8" serif:id="Shape" d="M1234.1,117.7C1253,116.6 1270.7,109 1289.4,106.9C1291.3,106.7 1291.3,103.7 1289.4,103.9C1270.7,106 1253,113.5 1234.1,114.7C1232.1,114.9 1232.1,117.9 1234.1,117.7ZM1269.9,81.1C1265.7,78.7 1269.5,70.8 1274,72.7C1276.4,73.7 1276.9,76.6 1275.6,78.7C1274.2,81 1271.3,81.4 1268.9,80.7C1267,80.2 1266.2,83.1 1268.1,83.6C1272.1,84.7 1276.6,83.5 1278.6,79.6C1280.4,76.1 1279,71.5 1275.2,69.9C1267.4,66.6 1261,79.6 1268.4,83.7C1270,84.6 1271.6,82 1269.9,81.1ZM1239.3,54.3C1239.4,52.6 1239.5,50.9 1240,49.3C1240.4,48 1241.4,44.9 1242.9,44.3C1245.6,43.3 1246.6,52.8 1246.8,54.6C1247,56.5 1250,56.5 1249.8,54.6C1249.5,51.1 1248.7,40.1 1243.1,40.9C1240.7,41.2 1239,43.9 1238.1,45.9C1236.9,48.5 1236.5,51.4 1236.4,54.2C1236.3,56.2 1239.3,56.2 1239.3,54.3ZM1256.1,520.8L1256.1,556.9C1256.1,558.8 1259.1,558.8 1259.1,556.9L1259.1,520.8C1259.1,518.9 1256.1,518.9 1256.1,520.8Z" style="fill:rgb(232,232,232);fill-rule:nonzero;"/>
                <path id="Path9" serif:id="Path" d="M1219.8,561.3L1301.5,561.3C1303.4,561.3 1303.4,558.3 1301.5,558.3L1219.8,558.3C1217.9,558.3 1217.9,561.3 1219.8,561.3Z" style="fill:rgb(232,232,232);fill-rule:nonzero;"/>
                <path id="Shape9" serif:id="Shape" d="M1231.3,562.2L1231.3,579.2C1231.3,581.1 1234.3,581.1 1234.3,579.2L1234.3,562.2C1234.3,560.3 1231.3,560.3 1231.3,562.2ZM1275,563.1L1275,583.3C1275,585.2 1278,585.2 1278,583.3L1278,563.1C1278,561.1 1275,561.1 1275,563.1Z" style="fill:rgb(232,232,232);fill-rule:nonzero;"/>
                <path id="Path10" serif:id="Path" d="M1253.8,587.2L1310.5,587.2C1312.4,587.2 1312.4,584.2 1310.5,584.2L1253.8,584.2C1251.9,584.2 1251.9,587.2 1253.8,587.2Z" style="fill:rgb(232,232,232);fill-rule:nonzero;"/>
                <path id="Path11" serif:id="Path" d="M561.9,879.6C593.4,858.3 609.2,847.6 613.3,846.3C623.3,843.1 655.7,832.8 684,850.1C704.3,862.5 723,889.4 715.2,907.4C709.6,920.2 692.5,924.2 677,927.9C654.1,933.3 634.5,930.3 623.5,927.7C619.2,931.9 612.3,937.5 602.6,941.2C586.5,947.4 567.9,946.3 567,942.6C566.6,940.7 570.6,937 590,929.4C587.7,926.9 584.3,923.9 579.5,921.8C565.3,915.3 551.1,921.6 548.4,922.9C562.3,931 565.3,935.2 564.6,937.5C562.8,943.3 534.5,945.2 526.9,931.9C526.1,930.6 523.9,926.1 525.7,917.6C529.3,902 542.3,892.9 561.9,879.6Z" style="fill:rgb(22,22,22);fill-rule:nonzero;"/>
                <path id="Shape10" serif:id="Shape" d="M699.1,901.8C702.3,895.2 716.7,896.8 722.3,897.4C729.5,898.2 735.9,898.9 741.7,904C746.1,907.8 752.5,916.1 750.2,922.8C748.1,929.2 740.2,928.7 724.9,936.2C722.3,937.5 697.3,949.8 699,957.9C699.7,961.2 704.2,961.1 718.5,967.2C730.9,972.4 738.2,975.6 744.3,982.6C747.3,986.1 753.3,993 751.7,1000C748.7,1012.9 721.9,1015.1 721.2,1013.1C720.6,1011.4 739.4,1006.7 739.6,997.9C739.8,991.2 729.3,985.8 722.7,982.3C703.3,972.2 690.2,975.8 685.1,966.1C682.2,960.6 683.8,954.7 684.1,953.6C685.6,948.2 689.8,943.6 710.3,933.3C729,923.9 737.3,921.7 737.2,917.5C737.1,913.6 729.9,910.4 725.5,909.3C713.1,906 704,913.8 699.8,909.4C698,907.4 698.1,904 699.1,901.8ZM528.3,853.4L547.2,867.5C556.2,866.6 565.1,865.8 574.1,864.9C579.7,859.5 585.3,854 590.9,848.6C591.3,852 592.1,859.7 592.4,863.4C595.9,896.7 596.2,899.6 594.1,903.4C587.2,915.7 563.9,920.7 550.5,912.1C544,907.9 541.5,901.6 536.8,889.5C531.1,874.9 529.1,862.1 528.3,853.4Z" style="fill:rgb(22,22,22);fill-rule:nonzero;"/>
                <path id="Shape11" serif:id="Shape" d="M553.7,888C552.2,891.1 548.9,893 545.5,892.4C544.6,892.2 544.2,893.7 545.1,893.8C549.2,894.5 553.3,892.5 555,888.7C555.4,887.9 554.2,887.1 553.7,888ZM567.6,887C570.9,890.2 575.3,891.6 579.8,890.9C580.8,890.8 580.3,889.3 579.4,889.5C575.4,890.1 571.5,888.8 568.6,886C567.9,885.3 566.9,886.3 567.6,887ZM562.3,896.5C562,896.5 561.8,896.4 561.5,896.4C561.6,896.3 561.6,896.1 561.7,896C561.9,896.2 562.2,896.4 562.4,896.6C562.4,896.4 562.3,896.3 562.3,896.1C562,895.2 560.6,895.6 560.9,896.5C561.4,898.7 562.2,902.1 559.5,903.2C558.6,903.6 559,905 559.9,904.6C563.5,903.1 563.1,899.2 562.4,896C561.9,896.1 561.4,896.3 561,896.4C561,896.6 561.1,896.7 561.1,896.9C561.2,897.2 561.5,897.5 561.8,897.5C564.4,897.3 562.3,893.7 561.1,895.8C560.6,896.5 561.8,897.3 562.3,896.5Z" style="fill:white;fill-rule:nonzero;"/>
                <path id="Shape12" serif:id="Shape" d="M561.3,897.2C561.8,898.9 561.9,900.8 563,902.3C563.9,903.5 565.3,904.1 566.8,903.8C567.7,903.6 567.3,902.2 566.4,902.4C563.6,903 563.2,898.6 562.7,896.8C562.5,895.9 561.1,896.3 561.3,897.2ZM556.5,898.6C553.6,897.3 550.6,896.7 547.4,896.9C546.4,897 546.4,898.5 547.4,898.4C550.3,898.2 553.1,898.7 555.7,899.9C556.6,900.3 557.4,899 556.5,898.6ZM553.9,900.6C551.4,900.8 549.2,901.8 547.5,903.5C546.8,904.2 547.9,905.2 548.6,904.6C550.1,903.2 551.9,902.3 554,902.1C554.8,902 554.8,900.5 553.9,900.6ZM568.2,897.9C571.1,896.8 574,896.4 577.1,896.7C578.1,896.8 578.1,895.3 577.1,895.2C573.9,894.9 570.8,895.4 567.8,896.5C566.9,896.8 567.2,898.3 568.2,897.9ZM570.2,900.6C572.4,900.3 574.5,900.5 576.6,901.3C577.5,901.6 577.9,900.2 577,899.9C574.8,899.1 572.5,898.9 570.2,899.2C569.2,899.2 569.2,900.8 570.2,900.6ZM546.6,883.6C548.1,882.7 549.9,882.7 551.4,883.6C552.2,884.1 553,882.8 552.2,882.3C550.2,881.2 547.9,881.2 545.9,882.3C545,882.8 545.8,884.1 546.6,883.6ZM567.6,881.6C569.1,880.8 570.8,880.6 572.6,880.8C573.5,880.9 574,879.5 573,879.4C570.9,879.1 568.8,879.4 566.9,880.4C565.9,880.7 566.7,882 567.6,881.6Z" style="fill:white;fill-rule:nonzero;"/>
                <path id="Shape13" serif:id="Shape" d="M543.7,850.2C546.8,848.9 549.9,847.6 552.9,846.2C552.3,845.8 551.8,845.4 551.2,844.9C550,848.7 548.2,852.1 545.8,855.3C545.2,856.1 546.2,857.3 547.1,857C550.5,855.7 553.9,854.5 557.3,853.2C558.6,852.7 558.1,850.5 556.7,851C553.3,852.3 549.9,853.5 546.5,854.8C546.9,855.4 547.3,855.9 547.8,856.5C550.4,853.2 552.2,849.6 553.5,845.6C553.8,844.6 552.7,844 551.8,844.3C548.7,845.6 545.6,846.9 542.6,848.3C541.2,848.9 542.4,850.8 543.7,850.2ZM548.7,832C550.8,830.8 552.9,830 555.2,829.5C554.8,828.9 554.4,828.4 553.9,827.8C553,829.8 551.9,831.8 550.6,833.6C550.1,834.4 550.8,835.2 551.6,835.3C554.3,835.5 556.8,834.8 558.9,833.2C560,832.3 558.9,830.4 557.8,831.3C556,832.7 554,833.3 551.7,833.1C552,833.7 552.3,834.2 552.7,834.8C554,832.9 555.1,831 556,829C556.4,828.1 555.7,827.1 554.7,827.3C552.2,827.8 549.8,828.7 547.6,830C546.3,830.8 547.4,832.7 548.7,832ZM565.2,856.2C561.9,852.9 567.6,851 568.2,848.1C568.8,844.7 564.8,841.5 569.3,838.9C570.6,838.2 569.4,836.2 568.2,837C566.6,837.9 565.3,839.3 564.9,841.2C564.3,844.4 567.1,846.3 564.7,849.2C563.6,850.6 562.3,851 561.9,852.9C561.5,854.8 562.3,856.4 563.6,857.8C564.7,858.8 566.3,857.2 565.2,856.2Z" style="fill:rgb(22,22,22);fill-rule:nonzero;"/>
                <path id="Path12" serif:id="Path" d="M841.3,570.7C590.6,588.8 339.9,606.8 89.3,624.9C82.5,443.1 75.7,261.3 69,79.5L824.4,69.3C830,236.4 835.6,403.5 841.3,570.7Z" style="fill:white;fill-rule:nonzero;stroke:rgb(22,22,22);stroke-width:3.5px;"/>
                <path id="Shape14" serif:id="Shape" d="M282,168L427.9,168C429.8,168 429.8,165 427.9,165L282,165C280.1,165 280.1,168 282,168ZM336.6,180.3L486.9,180.3C488.8,180.3 488.8,177.3 486.9,177.3L336.6,177.3C334.6,177.3 334.6,180.3 336.6,180.3ZM99.4,473.7C101.2,515.5 103,557.4 104.8,599.2C104.9,601.1 107.9,601.1 107.8,599.2C106,557.4 104.2,515.5 102.4,473.7C102.3,471.8 99.3,471.8 99.4,473.7ZM319.7,449.3L332.7,449.3C334.6,449.3 334.6,446.3 332.7,446.3L319.7,446.3C317.8,446.3 317.8,449.3 319.7,449.3ZM344,449.3L377.2,449.3C379.1,449.3 379.1,446.3 377.2,446.3L344,446.3C342.1,446.3 342.1,449.3 344,449.3ZM402.3,447.7L442,447.7C443.9,447.7 443.9,444.7 442,444.7L402.3,444.7C400.4,444.7 400.4,447.7 402.3,447.7ZM337.6,470.3L386.2,470.3C388.1,470.3 388.1,467.3 386.2,467.3L337.6,467.3C335.6,467.3 335.6,470.3 337.6,470.3ZM361,459L417.7,459C419.6,459 419.6,456 417.7,456L361,456C359.1,456 359.1,459 361,459ZM461.4,565.9L556.9,565.9C558.8,565.9 558.8,562.9 556.9,562.9L461.4,562.9C459.5,562.9 459.5,565.9 461.4,565.9ZM539.9,574L590.1,574C592,574 592,571 590.1,571L539.9,571C538,571 538,574 539.9,574ZM583.6,561.8L633,561.8C634.9,561.8 634.9,558.8 633,558.8L583.6,558.8C581.7,558.8 581.7,561.8 583.6,561.8ZM667.8,290.7L759.3,290.7C761.2,290.7 761.2,287.7 759.3,287.7L667.8,287.7C665.9,287.7 665.9,290.7 667.8,290.7ZM639.5,295.5L668.6,295.5C670.5,295.5 670.5,292.5 668.6,292.5L639.5,292.5C637.5,292.5 637.5,295.5 639.5,295.5ZM645.1,303.6L743,303.6C744.9,303.6 744.9,300.6 743,300.6L645.1,300.6C643.2,300.6 643.2,303.6 645.1,303.6ZM765.8,296.3L784.4,296.3C786.3,296.3 786.3,293.3 784.4,293.3L765.8,293.3C763.8,293.3 763.8,296.3 765.8,296.3ZM741.5,418.5L769,418.5C770.9,418.5 770.9,415.5 769,415.5L741.5,415.5C739.5,415.5 739.5,418.5 741.5,418.5ZM723.7,426.6L753.6,426.6C755.5,426.6 755.5,423.6 753.6,423.6L723.7,423.6C721.7,423.6 721.7,426.6 723.7,426.6ZM738.2,434.7L797.3,434.7C799.2,434.7 799.2,431.7 797.3,431.7L738.2,431.7C736.3,431.7 736.3,434.7 738.2,434.7ZM775.5,425L793.3,425C795.2,425 795.2,422 793.3,422L775.5,422C773.5,422 773.5,425 775.5,425ZM363.6,300.3L405.5,300.3C407.4,300.3 407.4,297.3 405.5,297.3L363.6,297.3C361.7,297.3 361.7,300.3 363.6,300.3ZM394.1,308.9L456,308.9C457.9,308.9 457.9,305.9 456,305.9L394.1,305.9C392.2,305.9 392.1,308.9 394.1,308.9ZM448.4,297.4L483.6,297.4C485.5,297.4 485.5,294.4 483.6,294.4L448.4,294.4C446.5,294.4 446.5,297.4 448.4,297.4ZM90.5,137.8L97.1,365.6C97.7,387.2 98.3,408.7 99,430.3C99.1,432.2 102.1,432.2 102,430.3L95.4,202.5C94.8,180.9 94.2,159.4 93.5,137.8C93.5,135.9 90.5,135.9 90.5,137.8ZM817.4,385.9L821.9,536.4C822,538.3 825,538.3 824.9,536.4L820.4,385.9C820.4,384 817.4,384 817.4,385.9Z" style="fill:rgb(22,22,22);fill-rule:nonzero;"/>
                <path id="Shape15" serif:id="Shape" d="M610.3,362.9C610.9,369 611.5,375.2 612,381.3C617.8,379.8 623.5,378.2 629.3,376.7C628.5,370.6 627.8,364.4 627,358.3C621.4,359.8 615.9,361.4 610.3,362.9ZM606.8,409.6C612.8,408.8 618.7,408.1 624.7,407.3C625.5,414.6 626.2,421.9 627,429.2C621.6,429.4 616.2,429.6 610.9,429.8C609.5,423 608.2,416.3 606.8,409.6ZM628.7,453.9C630.6,460.2 632.5,466.6 634.5,472.9C639.9,470.4 645.3,467.9 650.6,465.4C648.9,459.8 647.1,454.3 645.4,448.7C639.9,450.5 634.3,452.2 628.7,453.9Z" style="fill:rgb(181,189,0);fill-rule:nonzero;"/>
                <path id="Path13" serif:id="Path" d="M233.4,513.5C234.7,532.9 236,552.3 237.3,571.6C271.3,569.4 305.3,567.3 339.3,565.1C339.9,547.7 340.6,530.2 341.2,512.8C305.3,513.1 269.3,513.3 233.4,513.5Z" style="fill:rgb(0,150,129);fill-rule:nonzero;"/>
                <ellipse id="Oval" cx="656.1" cy="112.9" rx="7.1" ry="5.9" style="fill:rgb(0,150,129);"/>
                <ellipse id="Oval1" serif:id="Oval" cx="173.6" cy="159.1" rx="5.9" ry="3.9" style="fill:rgb(181,189,0);"/>
                <ellipse id="Oval2" serif:id="Oval" cx="267.5" cy="270.7" rx="4.6" ry="5.4" style="fill:rgb(181,189,0);"/>
                <path id="Path14" serif:id="Path" d="M225.3,141.4C227.1,141.1 230.6,157.8 239.2,188.1C250.5,228 261.7,260.2 269.8,282.2C257.5,289.8 230,304.3 192.5,304.8C166,305.1 145.1,298.3 132.7,293.1C157,295.8 176.6,295.1 190.3,293.8C212,291.8 208.2,289.5 224.6,288.7C231.4,288.4 240.3,288.4 249.4,282.9C252.7,280.9 255.1,278.7 256.7,277.1C250.3,263.9 242.1,244.5 235.5,220.2C225,180.7 222.7,141.9 225.3,141.4Z" style="fill:rgb(109,108,108);fill-opacity:0.21;fill-rule:nonzero;"/>
                <path id="Path15" serif:id="Path" d="M319,249.9C320.6,262.6 323.5,276.8 328.3,292C342,335.2 365.1,366 382.5,385C372.1,392.7 359.2,400.7 343.7,407.4C296.7,427.7 252.8,424.7 229.3,421.1L226.6,405.2C236.6,405.5 247.2,405.3 258.3,404.7C297.9,402.2 331.9,393.3 359,383.4C350.4,368.8 344.2,356.2 339.9,346.7C329.5,324 321.8,306.9 319.1,283.8C317.4,269.7 318.1,257.8 319,249.9Z" style="fill:rgb(109,108,108);fill-opacity:0.25;fill-rule:nonzero;"/>
                <path id="Path16" serif:id="Path" d="M636.9,316.1C637.9,338.9 640.3,357.8 642.4,371.4C647.3,402.6 650.9,424.2 663.7,448.5C671.7,463.6 680.7,474.7 687.2,481.9C675.9,491.6 660.7,502.6 641.2,511.4C592.2,533.7 546.2,529.2 524.7,525.6C523.6,520.7 522.5,515.8 521.4,510.8C524.1,511 528.3,511.2 533.4,511.3C550.4,511.7 585.8,512.3 626.4,498.7C637.8,494.9 653.8,488.5 671.8,477.9C664.7,468.4 657.7,457.1 651.6,444C627.5,392.3 632.3,342.1 636.9,316.1Z" style="fill:rgb(109,108,108);fill-opacity:0.14;fill-rule:nonzero;"/>
                <path id="Path17" serif:id="Path" d="M713.5,91.8C715.5,101.1 718.4,115.3 721.3,133C726.7,167.2 726.3,179.6 732.6,199.8C735.9,210.3 741.8,225.2 752.9,242.2C743.6,249.8 732,257.7 717.7,264.3C670.9,286 626.1,279.9 605.5,275.6C605.7,271.6 605.9,267.6 606.1,263.7C608.7,264.4 612.6,265.3 617.4,266.1C623.7,267.1 647,270.5 690.8,259.5C702.9,256.5 719.2,251.7 737.9,244C734.3,237.6 729,227.6 724.2,214.8C710.2,177.7 710.3,145.5 710.5,128.9C710.6,119.8 711.2,107.1 713.5,91.8Z" style="fill:rgb(109,108,108);fill-opacity:0.18;fill-rule:nonzero;"/>
                <g id="Group" transform="matrix(1,0,0,1,111,89)">
                    <path id="Path18" serif:id="Path" d="M4.7,46.7C-5.2,99.1 4.8,152.1 14.8,203.7C15.2,205.6 18.1,204.8 17.7,202.9C7.8,151.9 -2.1,99.4 7.6,47.5C7.9,45.7 5,44.8 4.7,46.7Z" style="fill:rgb(22,22,22);fill-rule:nonzero;"/>
                    <path id="Shape16" serif:id="Shape" d="M7.5,46.3C21.8,55.9 39.1,57.6 56,56.4C75.3,55 94.4,50.9 113.5,47.7C115.4,47.4 114.6,44.5 112.7,44.8C94.4,47.8 76.1,51.7 57.6,53.2C40.7,54.6 23.4,53.3 9,43.6C7.4,42.6 5.9,45.2 7.5,46.3ZM111.5,49.8C114.3,97.6 121.5,146.4 145.7,188.4C146.7,190.1 149.3,188.6 148.3,186.9C124.4,145.3 117.3,97 114.5,49.8C114.4,47.9 111.4,47.9 111.5,49.8Z" style="fill:rgb(22,22,22);fill-rule:nonzero;"/>
                    <path id="Shape17" serif:id="Shape" d="M17.3,204.5C40,211.1 64.4,207.1 87.5,205.2C108,203.5 130,202.7 147.6,190.7C149.2,189.6 147.7,187 146.1,188.1C128.4,200.2 106.2,200.6 85.6,202.3C63.4,204.1 40,207.8 18.1,201.5C16.2,201.1 15.4,204 17.3,204.5ZM55.7,70.7C53.7,69.8 55.9,67.9 57.1,67.6C58.6,67.2 61.5,67 62.2,68.7C62.7,70 61.9,71.7 60.7,72.2C58.8,73.1 56.7,72 55.4,70.7C54,69.3 51.9,71.4 53.3,72.8C55.8,75.3 59.9,76.6 63,74.3C65.5,72.5 66.4,68.5 64.3,66.1C61.9,63.4 56.8,63.7 54.1,65.7C51.7,67.5 51.2,71.8 54.3,73.2C56,74.1 57.5,71.5 55.7,70.7Z" style="fill:rgb(22,22,22);fill-rule:nonzero;"/>
                    <path id="Shape18" serif:id="Shape" d="M95.8,204.9C88.6,241.4 96.3,278.3 104.1,314.1C104.5,316 107.4,315.2 107,313.3C99.3,278.1 91.7,241.7 98.7,205.7C99.1,203.8 96.2,203 95.8,204.9ZM137.1,166.6C160.2,162.2 183.6,160.6 207,161.5L205.5,160C200.8,208.2 221.4,254.1 246.4,294C247.4,295.6 250,294.1 249,292.5C224.3,253 203.8,207.7 208.5,160C208.6,159.2 207.7,158.5 207,158.5C183.3,157.6 159.6,159.3 136.3,163.7C134.4,164.1 135.2,167 137.1,166.6Z" style="fill:rgb(22,22,22);fill-rule:nonzero;"/>
                    <path id="Shape19" serif:id="Shape" d="M105.7,316.2C154.3,321.9 203.6,314.6 248.6,295.4C250.4,294.6 248.8,292.1 247.1,292.8C202.7,311.8 153.7,318.8 105.7,313.2C103.8,313 103.8,316 105.7,316.2ZM155.9,178.9C155.9,178.8 156.2,178.3 156.2,178.1C156.3,177.7 156.6,177.3 156.9,177C157.5,176.5 158.2,176.1 159,176C160.5,175.8 161.9,176.6 162.3,178.1C162.6,179.3 162.1,180.9 160.7,181.1C159.4,181.3 158.2,180.4 158,179.1C157.7,177.2 154.8,178 155.1,179.9C155.6,183.4 160.1,185.1 163,183.4C166.2,181.5 166,176.6 163.3,174.3C160.3,171.8 155.3,173.1 153.6,176.5C152.8,178.2 152.8,180.5 154.7,181.5C156.2,182.3 158.4,181.6 158.8,179.7C159.1,177.8 156.2,177 155.9,178.9ZM14.6,101.1C41.2,104.8 67.6,99.3 93.1,92C95,91.5 94.2,88.6 92.3,89.1C67.3,96.2 41.4,101.8 15.4,98.2C13.5,97.9 12.7,100.8 14.6,101.1ZM19.6,120.7C33.4,122.2 47.2,120.8 60.5,116.6C62.3,116 61.6,113.1 59.7,113.7C46.7,117.8 33.2,119.1 19.6,117.7C17.7,117.5 17.7,120.5 19.6,120.7ZM19.6,144.9C46,148 72.6,146.1 98.2,139.4C100.1,138.9 99.3,136 97.4,136.5C72,143.2 45.7,145 19.6,141.9C17.7,141.6 17.7,144.6 19.6,144.9ZM118.4,298.4C144.9,299.6 171.4,296.4 196.8,288.8C198.6,288.3 197.9,285.4 196,285.9C170.8,293.4 144.7,296.6 118.4,295.4C116.4,295.3 116.4,298.3 118.4,298.4ZM123.5,275.5C135.3,275.1 147.1,274.2 158.9,272.9C160.8,272.7 160.8,269.7 158.9,269.9C147.1,271.2 135.4,272.1 123.5,272.5C121.6,272.6 121.6,275.6 123.5,275.5ZM133.1,234.3C140.9,235.3 149,233.3 156.7,232.2C165.2,230.9 173.6,229.7 182.1,228.4C184,228.1 183.2,225.2 181.3,225.5C173.5,226.7 165.6,227.9 157.8,229C149.7,230.2 141.3,232.4 133.1,231.3C131.2,231 131.2,234 133.1,234.3ZM486.5,10.1C475.6,63.6 474.5,118.6 483.2,172.5C483.5,174.4 486.4,173.6 486.1,171.7C477.5,118.4 478.7,63.8 489.4,10.9C489.8,9 486.9,8.2 486.5,10.1Z" style="fill:rgb(22,22,22);fill-rule:nonzero;"/>
                    <path id="Path19" serif:id="Path" d="M489.9,10.8C526.2,2.5 563.7,0.8 600.7,5.8C602.6,6.1 603.4,3.2 601.5,2.9C564,-2.2 526,-0.5 489.1,7.9C487.3,8.4 488.1,11.3 489.9,10.8Z" style="fill:rgb(22,22,22);fill-rule:nonzero;"/>
                    <path id="Path20" serif:id="Path" d="M599.8,3.1C598.7,54.6 599.4,109 625.5,155.1C626.5,156.8 629,155.3 628.1,153.6C602.3,108 601.7,54.1 602.8,3.1C602.9,1.2 599.9,1.2 599.8,3.1Z" style="fill:rgb(22,22,22);fill-rule:nonzero;"/>
                    <path id="Shape20" serif:id="Shape" d="M485.5,174.1C496.7,177.5 508.7,177.7 520.3,177.8C532.8,177.9 545.3,177.1 557.8,175.4C581.7,172.2 605,165.7 627.3,156.3C629.1,155.6 627.5,153 625.8,153.7C603.5,163.1 580,169.5 556,172.6C544.8,174 533.5,174.8 522.2,174.7C510.3,174.7 497.8,174.6 486.4,171.1C484.4,170.7 483.7,173.6 485.5,174.1ZM546.7,14C543.3,15.2 541.8,19.1 543,22.4C544.4,26.1 548.7,27 551.9,24.8C555,22.6 556,18.2 553,15.4C550.4,13 545.9,12.9 543.5,15.5C542.2,16.9 544.3,19 545.6,17.6C548.6,14.4 554.5,18.9 550.4,22.1C548.8,23.3 546.5,23.3 545.8,21.2C545.3,19.6 545.8,17.4 547.5,16.8C549.3,16.2 548.5,13.3 546.7,14ZM488,56.6C515.3,57.3 542.5,56.8 569.7,55C571.6,54.9 571.6,51.9 569.7,52C542.5,53.8 515.2,54.4 488,53.6C486,53.6 486,56.6 488,56.6ZM490.7,71.8C500.9,72.2 511.1,72.6 521.2,73C523.1,73.1 523.1,70.1 521.2,70C511,69.6 500.8,69.2 490.7,68.8C488.7,68.7 488.7,71.7 490.7,71.8ZM487.9,93C513.6,94.4 539.6,95.6 564.9,90C566.8,89.6 566,86.7 564.1,87.1C539,92.6 513.3,91.4 487.9,90C486,89.9 486,92.9 487.9,93ZM115.1,418.1C112.8,438.1 112,458.2 112.7,478.3C112.8,480.2 115.8,480.2 115.7,478.3C115,458.2 115.8,438.1 118.1,418.1C118.3,416.2 115.3,416.2 115.1,418.1Z" style="fill:rgb(22,22,22);fill-rule:nonzero;"/>
                    <path id="Path21" serif:id="Path" d="M116.1,419.3C151.7,419.3 187.4,418.8 223,417.7C224.9,417.6 224.9,414.6 223,414.7C187.4,415.8 151.7,416.3 116.1,416.3C114.2,416.3 114.2,419.3 116.1,419.3Z" style="fill:rgb(22,22,22);fill-rule:nonzero;"/>
                    <path id="Path22" serif:id="Path" d="M222.7,416.3L223.6,468.4C223.6,470.3 226.6,470.3 226.6,468.4L225.7,416.3C225.7,414.4 222.6,414.4 222.7,416.3Z" style="fill:rgb(22,22,22);fill-rule:nonzero;"/>
                    <path id="Shape21" serif:id="Shape" d="M112.4,476.1C112.6,482.6 123.9,479.7 127.6,479.5C138.2,478.8 148.8,478.1 159.3,477.3C180.8,475.8 202.3,474.4 223.8,472.9C225.7,472.8 225.7,469.8 223.8,469.9C205.5,471.1 187.3,472.4 169,473.6L142.9,475.4C140.3,475.6 115.4,478 115.3,476.1C115.4,474.2 112.4,474.2 112.4,476.1ZM124.2,432.8C148.2,431.7 172.2,432.6 196,435.6C197.9,435.8 197.9,432.8 196,432.6C172.2,429.6 148.2,428.7 124.2,429.8C122.2,429.9 122.2,432.9 124.2,432.8ZM125.1,448C138.5,447 152,445.9 165.4,444.9C167.3,444.8 167.3,441.8 165.4,441.9C152,442.9 138.5,444 125.1,445C123.2,445.1 123.2,448.1 125.1,448ZM129.6,463.3C148.9,460.8 169.9,455.7 189.3,459.2C191.2,459.5 192,456.7 190.1,456.3C170.3,452.7 149.3,457.7 129.6,460.3C127.8,460.6 127.7,463.6 129.6,463.3ZM389.7,247.9C373.8,304.5 375.8,365.1 395.3,420.6C395.9,422.4 398.8,421.6 398.2,419.8C378.9,364.8 376.9,304.8 392.6,248.7C393.1,246.8 390.2,246 389.7,247.9Z" style="fill:rgb(22,22,22);fill-rule:nonzero;"/>
                    <path id="Path23" serif:id="Path" d="M391.7,248.9C436.2,248.7 480.5,242.9 523.6,231.6C525.5,231.1 524.7,228.2 522.8,228.7C480,239.9 436,245.7 391.7,245.9C389.7,245.9 389.7,248.9 391.7,248.9Z" style="fill:rgb(22,22,22);fill-rule:nonzero;"/>
                    <path id="Path24" serif:id="Path" d="M522.8,229.8C521,257.6 522.2,285.6 527.2,313.1C529.7,327 532.7,340.9 538.2,353.9C543.7,366.8 551.3,378.5 560.2,389.2C561.4,390.7 563.6,388.6 562.3,387.1C553.2,376.2 545.5,364.1 540.1,350.9C535,338.3 532.2,324.8 529.9,311.5C525.1,284.6 524,257.1 525.7,229.8C525.9,227.9 522.9,227.9 522.8,229.8Z" style="fill:rgb(22,22,22);fill-rule:nonzero;"/>
                    <path id="Shape22" serif:id="Shape" d="M395.7,422.2C452.3,426.2 511.4,419.8 561,390.6C562.7,389.6 561.2,387 559.5,388C510.2,417 451.7,423.1 395.7,419.2C393.8,419 393.8,422 395.7,422.2ZM455.9,257.9C454.2,255 457.6,251.4 460.5,253.7C463.6,256.2 460.3,260.2 457,258.9C455.2,258.2 454.4,261.1 456.2,261.8C458.9,262.9 462.2,261.7 463.8,259.3C465.6,256.6 464.8,253.2 462.3,251.3C456.9,247 450.1,253.7 453.3,259.4C454.3,261.1 456.9,259.6 455.9,257.9ZM392.7,292.4C422.6,291.9 452.5,289.8 482.3,286.2C484.2,286 484.2,283 482.3,283.2C452.6,286.9 422.7,288.9 392.7,289.4C390.8,289.5 390.8,292.5 392.7,292.4ZM493,272.3C493.9,276.9 494.8,281.6 495.7,286.2C496.1,288.1 499,287.3 498.6,285.4C497.7,280.8 496.8,276.1 495.9,271.5C495.6,269.6 492.7,270.4 493,272.3Z" style="fill:rgb(22,22,22);fill-rule:nonzero;"/>
                    <path id="Path25" serif:id="Path" d="M495,271.9C500.5,271.1 506,270.3 511.6,269.4C513.5,269.1 512.7,266.2 510.8,266.5C505.3,267.3 499.8,268.1 494.2,269C492.3,269.3 493.1,272.2 495,271.9Z" style="fill:rgb(22,22,22);fill-rule:nonzero;"/>
                    <path id="Path26" serif:id="Path" d="M510.7,268.5C511.5,272.8 512.2,277.1 513,281.3C513.3,283.2 516.2,282.4 515.9,280.5C515.1,276.2 514.4,271.9 513.6,267.7C513.3,265.9 510.4,266.7 510.7,268.5Z" style="fill:rgb(22,22,22);fill-rule:nonzero;"/>
                    <path id="Shape23" serif:id="Shape" d="M498.2,288.5C504.1,287.3 509.7,285.7 515.3,283.5C517.1,282.8 516.3,279.9 514.5,280.6C508.9,282.7 503.2,284.4 497.4,285.6C495.5,286 496.3,288.9 498.2,288.5ZM498.7,275.3C499.8,277.8 501.3,279.8 503.5,281.5C504.3,282.1 505.8,282.1 506,280.8C506.8,275.4 508.7,270.6 511.9,266.1C513,264.5 510.4,263 509.3,264.6C506,269.2 503.9,274.4 503.1,280C503.9,279.8 504.8,279.6 505.6,279.3C503.7,277.8 502.3,276 501.3,273.7C500.5,272 497.9,273.5 498.7,275.3ZM499.8,318.2C498.2,325.4 498.9,332.4 501.8,339.1C502.6,340.9 505.1,339.3 504.4,337.6C501.8,331.7 501.3,325.3 502.7,319C503.1,317.1 500.2,316.3 499.8,318.2Z" style="fill:rgb(22,22,22);fill-rule:nonzero;"/>
                    <path id="Path27" serif:id="Path" d="M501.8,319.2C507.8,318.2 513.8,317.3 519.8,316.3L518,314.5C517,320.9 517.7,327 520.2,333C520.9,334.8 523.8,334 523.1,332.2C520.8,326.8 520,321.1 520.9,315.3C521.1,314.1 520.3,313.3 519.1,313.5C513.1,314.4 507.1,315.4 501.1,316.4C499.1,316.6 499.9,319.5 501.8,319.2Z" style="fill:rgb(22,22,22);fill-rule:nonzero;"/>
                    <path id="Shape24" serif:id="Shape" d="M503.1,339.2C509.7,339 516,337.7 522.2,335.5C524,334.8 523.2,331.9 521.4,332.6C515.5,334.8 509.4,336 503.1,336.2C501.2,336.2 501.2,339.2 503.1,339.2ZM504,325.3C504.9,327.9 506.4,329.7 508.8,331.1C509.9,331.7 510.9,330.9 511.1,329.8C511.7,324.5 513.1,319.4 515.3,314.5C516.1,312.8 513.5,311.2 512.7,313C510.3,318.4 508.8,324 508.1,329.8C508.9,329.4 509.6,328.9 510.4,328.5C508.7,327.5 507.7,326.3 507,324.4C506.3,322.7 503.4,323.5 504,325.3ZM506,364.6C506.7,371.3 508.5,377.6 511.5,383.6C512.3,385.3 514.9,383.8 514.1,382.1C511.4,376.6 509.7,370.7 509.1,364.6C508.8,362.7 505.8,362.7 506,364.6Z" style="fill:rgb(22,22,22);fill-rule:nonzero;"/>
                    <path id="Path28" serif:id="Path" d="M507.4,364.3C515.1,365 522.3,363.6 529.2,360.2C528.5,359.9 527.7,359.6 527,359.3C528.3,365.4 531,370.7 535.2,375.4C536.5,376.8 538.6,374.7 537.3,373.3C533.5,369 531.1,364.2 529.9,358.6C529.7,357.6 528.5,357.3 527.7,357.7C521.3,360.8 514.5,362 507.4,361.4C505.5,361.2 505.5,364.2 507.4,364.3Z" style="fill:rgb(22,22,22);fill-rule:nonzero;"/>
                    <path id="Shape25" serif:id="Shape" d="M514.2,384.7C522,381.8 529.7,378.7 537.2,375.3C539,374.5 537.4,371.9 535.7,372.7C528.4,376 520.9,379 513.4,381.8C511.6,382.5 512.4,385.4 514.2,384.7ZM512.6,369.6C515,371.7 520.5,378.9 523.3,373.6C524.6,371.2 524.3,367.9 525.1,365.2C526.3,361.4 528.3,357.9 530.9,354.9C532.1,353.4 530,351.3 528.8,352.8C526,356.1 523.8,359.7 522.5,363.9C521.9,365.8 521.4,367.8 521.1,369.8C520.7,372.3 520,371.7 518.1,370.5C516.9,369.7 515.8,368.5 514.7,367.5C513.3,366.2 511.2,368.3 512.6,369.6ZM395.4,341.3C423.4,341 451.3,338.7 478.9,334.3C480.8,334 480,331.1 478.1,331.4C450.7,335.7 423.1,338 395.4,338.2C393.5,338.3 393.5,341.3 395.4,341.3ZM392.2,300.7C410.3,301.2 428.3,300.6 446.3,299.1C448.2,298.9 448.2,295.9 446.3,296.1C428.3,297.6 410.2,298.1 392.2,297.7C390.3,297.6 390.3,300.6 392.2,300.7ZM396.5,347.2C415.5,348.1 434.5,347.4 453.3,345C455.2,344.8 455.2,341.8 453.3,342C434.4,344.3 415.4,345.1 396.5,344.2C394.6,344.1 394.6,347.1 396.5,347.2ZM459.7,343.6C465.1,343.7 470.4,343 475.6,341.3C477.4,340.7 476.6,337.8 474.8,338.4C469.9,340 464.9,340.7 459.7,340.6C457.8,340.6 457.8,343.6 459.7,343.6ZM406.7,384.8C429.5,383.4 452.2,381.3 474.8,378.2C476.7,377.9 476.7,374.9 474.8,375.2C452.2,378.2 429.5,380.4 406.7,381.8C404.7,381.9 404.7,384.9 406.7,384.8ZM409.3,391.8L431.8,391.8C433.7,391.8 433.7,388.8 431.8,388.8L409.3,388.8C407.4,388.8 407.4,391.8 409.3,391.8ZM415.8,398.5C427.5,397.8 439.2,396.7 450.9,395.3C460.3,394.1 470.4,393.6 478.5,388.1C480.1,387 478.6,384.4 477,385.5C468.5,391.3 457.1,391.6 447.2,392.7C436.8,393.9 426.3,394.8 415.9,395.5C413.9,395.6 413.8,398.6 415.8,398.5ZM530,317.7C548.2,316.8 566.3,314.4 584.2,310.6C583.6,310.3 583,309.9 582.4,309.6C590.8,334.6 603.2,357.9 619.1,379C620.2,380.5 622.9,379 621.7,377.5C606,356.7 593.7,333.6 585.3,308.9C585,308.1 584.3,307.7 583.5,307.9C565.9,311.7 548.1,314 530.1,314.9C528,314.8 528,317.8 530,317.7Z" style="fill:rgb(22,22,22);fill-rule:nonzero;"/>
                    <path id="Shape26" serif:id="Shape" d="M533.1,402.1C535.8,405.9 538,409.9 539.9,414.2C540.1,414.8 541,415.1 541.6,414.9C556.3,410 570.8,404.6 585,398.5C592.2,395.4 599.3,392.2 606.4,388.8C609.8,387.2 613.2,385.5 616.5,383.8C618.5,382.8 620.8,382.2 621.5,380C621.7,379.4 621.4,378.6 620.8,378.3C619.9,377.8 619.4,377.8 618.5,378.3C617.9,378.6 617.6,379.4 617.8,380C617.8,380.1 617.9,380.2 617.9,380.3C618.4,382.2 621.3,381.4 620.8,379.5C620.8,379.4 620.7,379.3 620.7,379.2C620.5,379.8 620.2,380.3 620,380.9L619.3,380.9C619.1,380.3 618.8,379.8 618.6,379.2C618,381 611.7,382.9 610,383.8C607.2,385.2 604.4,386.5 601.5,387.9C594.8,391.1 588,394.1 581.1,397C567.9,402.6 554.4,407.6 540.8,412.1C541.4,412.3 541.9,412.6 542.5,412.8C540.7,408.5 538.4,404.5 535.7,400.7C534.6,399 532,400.5 533.1,402.1ZM550.5,325.5C550.3,324.2 552.7,323 553.6,323.9C554.8,325.1 552.8,327.3 551.4,326.8C549.6,326.1 548.8,329 550.6,329.7C554.9,331.3 559.1,325.1 555.8,321.8C554.3,320.3 552,320.4 550.2,321.3C548.3,322.3 547.3,324.2 547.7,326.3C547.9,328.2 550.8,327.3 550.5,325.5ZM107.4,245.5C118.5,245.7 129.7,245.2 140.7,243.7C152.2,242.1 163.6,238.8 175.3,239.3C177.2,239.4 177.2,236.4 175.3,236.3C164.6,235.9 154.2,238.6 143.7,240.2C131.7,242.1 119.5,242.8 107.3,242.5C105.5,242.5 105.5,245.5 107.4,245.5ZM109,212.4C126,213.7 143,212.2 159.5,207.9C161.4,207.4 160.6,204.5 158.7,205C142.4,209.2 125.8,210.7 109,209.4C107.1,209.3 107.1,212.3 109,212.4ZM493.8,128.2C492.1,139.2 490.7,151.1 497.6,160.7C498.7,162.3 501.3,160.8 500.2,159.2C493.8,150.3 495.2,139.2 496.7,129C497,127.1 494.1,126.3 493.8,128.2Z" style="fill:rgb(22,22,22);fill-rule:nonzero;"/>
                    <path id="Path29" serif:id="Path" d="M494.7,128.1C518.5,129 542.3,126.7 565.5,121.2C564.9,120.9 564.3,120.5 563.7,120.2C565.8,130.5 569.8,140.1 575.4,148.9C576.4,150.5 579,149 578,147.4C572.5,138.8 568.7,129.4 566.6,119.4C566.4,118.6 565.5,118.2 564.8,118.4C541.9,123.8 518.4,126.1 494.8,125.2C492.8,125 492.8,128 494.7,128.1Z" style="fill:rgb(22,22,22);fill-rule:nonzero;"/>
                    <path id="Shape27" serif:id="Shape" d="M500.1,160.6C525.9,159.8 551.4,156 576.2,149.2C578.1,148.7 577.3,145.8 575.4,146.3C550.8,153.1 525.6,156.9 500.1,157.6C498.1,157.7 498.1,160.7 500.1,160.6ZM852.7,859.1L852.7,892.9C772.7,924.6 756.4,935.9 757.6,940C757.9,941 760,944 802,939.1C843.6,934.2 877.3,927.1 900.7,921.3C896.6,898.2 892.4,875.1 888.3,852C876.4,854.4 864.5,856.8 852.7,859.1Z" style="fill:rgb(22,22,22);fill-rule:nonzero;"/>
                </g>
                <path id="Path30" serif:id="Path" d="M999.6,469.8C997.3,474.1 996.5,477.6 996.3,478.4C982,539.2 963.3,575.1 951.1,645.6C927.8,781.4 947.9,935.7 949.8,950.2C956.2,953 968.5,957.2 984.2,956.6C998,956 1008.7,951.9 1014.8,949C1012.5,904.7 1014.8,850 1030.1,789.7C1048.8,715.8 1072.5,691.3 1093.8,604.9C1109.6,540.9 1127.9,466.4 1096.3,444.3C1072.1,427.1 1015.4,439.7 999.6,469.8Z" style="fill:rgb(214,214,214);fill-rule:nonzero;"/>
                <path id="Path31" serif:id="Path" d="M1054.9,501.7C1038.9,574.7 1024,652.5 1011.4,734.8C999.5,812.2 990.6,886.3 984,956.7C994.1,954.6 1004.1,952.5 1014.2,950.4C1012.9,919.3 1014.3,892.8 1016.3,872.5C1018.7,847.3 1024.8,788.6 1049.3,730C1052.5,722.5 1056.6,713.4 1063.3,696.3C1074.6,668 1082.8,643.8 1086.5,632.4C1103.9,578 1112.6,514.9 1115.3,494.1C1095.1,496.5 1075,499.1 1054.9,501.7Z" style="fill:rgb(109,108,108);fill-opacity:0.2;fill-rule:nonzero;"/>
                <path id="Path32" serif:id="Path" d="M1087.9,628.8C1048.7,679.9 1030.4,726.2 1021.2,757.3C1012.8,785.6 1009.1,810.6 1004.3,843C997.5,889 994.9,927.8 993.8,955.4C1000.4,953.8 1006.9,952.1 1013.5,950.5C1012.4,911.8 1015.1,878.7 1018.4,852.9C1022.4,822.3 1027,786.8 1043,744.1C1048.8,728.6 1051.6,724.2 1064.8,690.7C1075,664.5 1082.8,643 1087.9,628.8Z" style="fill:rgb(109,108,108);fill-opacity:0.19;fill-rule:nonzero;"/>
                <path id="Path33" serif:id="Path" d="M1179.7,936.6C1185.3,950.5 1191,964.4 1196.6,978.4C1149.6,1008.3 1127.4,1025.7 1129.9,1030.8C1133,1037.1 1173.6,1024.6 1251.7,993.5C1243.4,966.5 1235.1,939.6 1226.8,912.6L1179.7,936.6Z" style="fill:rgb(22,22,22);fill-rule:nonzero;"/>
                <path id="Path34" serif:id="Path" d="M1141.1,471C1165.6,493.4 1164.8,524.8 1167.9,576.8C1167.9,576.8 1175.5,704.7 1201,807.5C1207.4,833.2 1219,873.1 1240.5,920.9C1236.9,925.5 1227.1,936.7 1209.9,942.6C1192.3,948.6 1177.3,945.4 1171.7,943.9C1141.1,891.7 1119.4,847.2 1105.4,816.4C1040.5,674.2 1035.3,599.3 1035.3,560.2C1035.3,520 1036,471.8 1065.9,455.7C1088.4,443.6 1121.4,453 1141.1,471Z" style="fill:rgb(214,214,214);fill-rule:nonzero;"/>
                <path id="Path35" serif:id="Path" d="M1071.7,486.3C1082.8,529 1094.8,572.4 1107.6,616.4C1141,730.6 1177.3,838.5 1215.4,939.7C1219.1,937.8 1223.6,935.2 1228.2,931.7C1232.9,928.1 1236.6,924.5 1239.4,921.3C1234.2,909.2 1227,891.7 1219.4,870.2C1207.9,837.3 1189.2,776.8 1179.5,696.2C1170.2,618.8 1165.5,580.1 1165.9,555.7C1166.2,535.6 1168,494.7 1142,472.7C1136.6,468.2 1131.3,465.5 1127.6,463.9C1108.9,471.4 1090.3,478.9 1071.7,486.3Z" style="fill:rgb(109,108,108);fill-opacity:0.15;fill-rule:nonzero;"/>
                <path id="Path36" serif:id="Path" d="M1167.1,581.7C1162.5,628.2 1161,690.5 1172.2,762.5C1183.5,834.9 1204,894 1222.5,937C1228.2,932.3 1233.9,927.6 1239.6,922.8C1232.8,906.7 1223.9,884.3 1215,856.9C1197.9,804.2 1190.5,763.1 1184.1,726.2C1177.6,688.4 1170.8,639.5 1167.1,581.7Z" style="fill:rgb(109,108,108);fill-opacity:0.22;fill-rule:nonzero;"/>
                <path id="Path37" serif:id="Path" d="M698.9,105.7C694.9,107.7 689.4,111.2 685.1,117.2C682.8,120.3 680,124.4 679.6,130.2C679.5,132.5 679.2,137.5 682.4,140.8C683.3,141.8 685.7,143.7 697.5,143.3C708,142.9 713.3,142.7 716,139.9C721.2,134.5 719.3,124.3 716,118.2C710.8,108.5 700.6,106.1 698.9,105.7Z" style="fill:white;fill-rule:nonzero;stroke:rgb(22,22,22);stroke-width:2px;"/>
                <path id="Path38" serif:id="Path" d="M759.3,130.8C773.4,146.9 796,156.5 837.5,173.6C889.8,195.2 916,206 947,209.8C980.5,213.9 998.4,209.6 1004.6,220.5C1012.7,234.6 993.7,261 974.1,283.1C959.5,279.9 944.4,275.9 928.8,270.7C843.3,242.4 781.5,192.6 740.9,151.2C735.8,152.3 727.1,153.4 717.2,150.4C708.7,147.9 696.7,141.5 697.4,136.4C698.3,130.2 720,129.1 721.3,129C714.7,126.3 705.2,121.7 694.9,114.2C691.9,112 674.7,99.3 676.8,95.3C678.6,91.8 694.2,96.6 708.9,101.1C722.3,105.2 731.6,108.1 741.8,115.1C751.6,121.7 757.3,128.5 759.3,130.8Z" style="fill:white;fill-rule:nonzero;stroke:rgb(22,22,22);stroke-width:2px;"/>
                <path id="Path39" serif:id="Path" d="M690.1,106.8C692.5,109.5 693,113.1 695.1,115.9C696.9,118.4 699.5,120.2 702.2,121.7C710.3,126.2 718.9,129.9 727.2,134C728.6,134.7 730.4,132.8 729,131.6C724.7,127.9 720.1,124.6 715.3,121.6C713.7,120.6 712.1,123.2 713.8,124.2C718.4,127.1 722.8,130.2 726.9,133.7L728.7,131.3C720.8,127.5 712.9,123.8 705.1,119.7C701.4,117.8 698.1,115.6 696.2,111.8C694.9,109.2 694.2,106.7 692.2,104.5C690.9,103.3 688.8,105.4 690.1,106.8Z" style="fill:white;fill-rule:nonzero;"/>
                <path id="Path40" serif:id="Path" d="M697.9,117.3C702.5,119.3 706.9,121.9 710.9,125C712.4,126.2 714.5,124.1 713,122.9C708.8,119.6 704.3,116.9 699.4,114.7C697.6,113.9 696.1,116.5 697.9,117.3Z" style="fill:white;fill-rule:nonzero;"/>
                <path id="Path41" serif:id="Path" d="M686.1,105C689.9,111.1 694.9,116.1 700.8,120.1C702.4,121.2 703.9,118.6 702.3,117.5C696.8,113.8 692.2,109.1 688.7,103.4C687.7,101.9 685.1,103.4 686.1,105Z" style="fill:white;fill-rule:nonzero;"/>
                <path id="Path42" serif:id="Path" d="M690.6,113.2C692.6,115.9 694.8,118.4 697.3,120.6C699.1,122.2 707,127.9 702.9,130.8C702.1,131.3 702.9,132.6 703.7,132.1C706.5,130.2 705.4,126.8 703.7,124.5C702.4,122.8 700.6,121.5 698.9,120C696.3,117.7 694,115.2 691.9,112.5C691.3,111.6 690,112.4 690.6,113.2Z" style="fill:rgb(22,22,22);fill-rule:nonzero;"/>
                <path id="Shape28" serif:id="Shape" d="M688.5,123.6C691.5,127.7 697.2,133.5 702.8,131.8C703.7,131.5 703.3,130.1 702.4,130.4C697.6,131.9 692.3,126.4 689.8,122.9C689.2,122.1 687.9,122.8 688.5,123.6ZM684.1,130.6C687.4,135.1 692.2,137.7 697.8,138C698.8,138.1 698.8,136.6 697.8,136.5C692.8,136.2 688.4,133.8 685.4,129.8C684.8,129 683.5,129.8 684.1,130.6ZM680.9,139.6C685.6,144.5 693.4,144.6 698.1,139.6C698.8,138.9 697.7,137.8 697,138.5C692.9,142.9 686.1,142.8 682,138.5C681.3,137.8 680.2,138.9 680.9,139.6ZM681.9,104.8C693,112.1 701,124.4 714.9,126.8C715.8,127 716.3,125.5 715.3,125.4C701.6,123.1 693.6,110.8 682.7,103.6C681.8,102.9 681.1,104.2 681.9,104.8Z" style="fill:rgb(22,22,22);fill-rule:nonzero;"/>
                <path id="Path43" serif:id="Path" d="M680.7,137.5C677.1,132.6 680.1,122.1 688.8,112.2C698.6,117.9 708.3,123.7 718.1,129.4C716.3,129.4 700.5,129.6 699.4,134.5C699.2,135.3 699.4,136.5 700.9,138.2C705.9,140.6 714.3,143.8 725.1,144.1C730.7,144.2 735.6,143.5 739.4,142.6C759.8,163.2 795.7,194.3 848.5,216.9C894.9,236.7 936.5,242.4 964,244C963.1,255.8 962.2,267.5 961.3,279.3C916,267.3 854.6,244.5 793.6,198.7C772.8,183.1 755,167 739.8,151.5C725.8,153.8 717.1,151.4 711.6,148.6C706.9,146.2 703.9,143.2 697.7,142.7C693.6,142.4 690.1,143.4 685.6,141.2C685.1,141 682.2,139.5 680.7,137.5Z" style="fill:rgb(109,108,108);fill-opacity:0.2;fill-rule:nonzero;"/>
                <path id="Path44" serif:id="Path" d="M809.5,208.1C823.5,215.6 839.7,223.2 858.2,229.7C898.5,244 935,248.5 962.9,249.5C962.5,259.7 962.2,270 961.8,280.2C932.8,273.4 896.4,261.5 857.8,239.9C839.3,229.6 823.3,218.7 809.5,208.1Z" style="fill:rgb(109,108,108);fill-opacity:0.14;fill-rule:nonzero;"/>
                <path id="Path45" serif:id="Path" d="M967.6,236.6C961.9,249.5 961.6,260.2 961.1,279.4C960.7,293.9 961.7,309.5 969.5,350.5C979,400.1 983.5,408.1 985,434.4C986.2,455 984.6,471.9 983.1,483.1C995.7,490 1016.8,499.4 1044.4,501.5C1093.2,505.2 1129.3,483.7 1141.7,475.5C1143.2,444.1 1144.7,412.6 1146.3,381.2C1140.8,354.4 1134.3,333.4 1129.6,319.6C1114.8,276.1 1101,255.5 1109.8,233.7C1114.7,221.6 1124.4,214.2 1131.1,210.1C1126.4,206.5 1077.1,170 1023.3,188.9C1017.7,190.8 982.3,203.3 967.6,236.6Z" style="fill:white;fill-rule:nonzero;stroke:rgb(22,22,22);stroke-width:2px;"/>
                <path id="Path46" serif:id="Path" d="M1023.1,188.8C1038.1,212.8 1046.5,234 1051.3,248.8C1051.3,248.8 1074.8,320.2 1057.6,416C1053.9,436.4 1047.3,465.4 1034.3,498.6C1039.3,499.7 1045.3,500.6 1052.1,500.9C1052.1,500.9 1062.6,501.4 1074.4,499.9C1088.8,498 1113.5,490.3 1142.6,475.5L1144.1,375.1C1136.7,346.8 1129.2,324.1 1123.6,308.2C1110.1,270.3 1100.6,252.5 1108.4,233.7C1113.5,221.4 1123.9,213.8 1132,209.4C1121.4,202.4 1101.8,191.5 1075,187.3C1052.9,183.9 1034.7,186.3 1023.1,188.8Z" style="fill:rgb(109,108,108);fill-opacity:0.19;fill-rule:nonzero;"/>
                <path id="Path47" serif:id="Path" d="M1036.8,186.5C1052.9,206.3 1071.7,235.2 1083.3,273.3C1116.2,382.1 1062.1,477.5 1049.6,498.4C1060.1,498.3 1072.4,497.4 1085.8,494.8C1109.7,490.2 1128.8,482 1142.5,474.7C1143,443.5 1143.5,412.3 1144,381.2C1135.5,352.3 1127.5,324.9 1116.6,287.7C1109.2,262.2 1103.4,241.3 1114.3,224.6C1119.6,216.5 1127,212 1132.6,209.4C1100.7,201.7 1068.7,194.1 1036.8,186.5Z" style="fill:rgb(109,108,108);fill-opacity:0.11;fill-rule:nonzero;"/>
                <path id="Path48" serif:id="Path" d="M1029.4,390.8C1029.1,369.4 1028.9,348.1 1028.6,326.7C1079.9,324.1 1131.2,321.5 1182.6,318.9C1184.4,338.7 1186.2,358.5 1188.1,378.3C1135.2,382.5 1082.3,386.6 1029.4,390.8Z" style="fill:white;fill-rule:nonzero;stroke:rgb(22,22,22);stroke-width:2px;"/>
                <path id="Path49" serif:id="Path" d="M1013.8,383.8L1013.8,360.4C1079.7,355.5 1145.6,350.5 1211.5,345.6C1212,355.2 1212.5,364.9 1213.1,374.5C1146.7,377.5 1080.2,380.7 1013.8,383.8Z" style="fill:white;fill-rule:nonzero;stroke:rgb(22,22,22);stroke-width:2px;"/>
                <path id="Path50" serif:id="Path" d="M1019.3,348.6C1020.1,360.1 1020.9,371.5 1021.6,383C1082.6,378.1 1143.5,373.1 1204.5,368.2C1205,357.8 1205.5,347.4 1206.1,336.9C1143.8,340.8 1081.5,344.7 1019.3,348.6Z" style="fill:white;fill-rule:nonzero;stroke:rgb(22,22,22);stroke-width:2px;"/>
                <path id="Path51" serif:id="Path" d="M1004.4,374.4C1006.2,420 1008,465.6 1009.9,511.2C1077.9,503.6 1145.9,496.1 1213.9,488.5L1220.2,354.1C1148.2,360.9 1076.3,367.6 1004.4,374.4Z" style="fill:white;fill-rule:nonzero;stroke:rgb(22,22,22);stroke-width:2px;"/>
                <path id="Shape29" serif:id="Shape" d="M1016,392.2C1046.9,388.1 1077.8,385.2 1108.9,383.4C1110.3,383.3 1110.3,381.1 1108.9,381.1C1077.8,382.9 1046.8,385.8 1016,389.9C1014.6,390.1 1014.6,392.4 1016,392.2ZM1050.5,398.3C1074.2,395.3 1097.9,392.2 1121.7,389.2C1123.1,389 1123.1,386.8 1121.7,386.9C1098,389.9 1074.3,393 1050.5,396C1049.1,396.3 1049.1,398.5 1050.5,398.3ZM1164.4,462.3C1164,468.6 1164,475 1164.6,481.3C1164.7,482.7 1167,482.7 1166.9,481.3C1166.3,475 1166.2,468.6 1166.7,462.3C1166.8,460.9 1164.5,460.9 1164.4,462.3Z" style="fill:rgb(22,22,22);fill-rule:nonzero;"/>
                <path id="Path52" serif:id="Path" d="M1165.4,462.5C1177.8,462.8 1190.1,462.1 1202.4,460.5L1201.3,459.4C1201.1,465.2 1201.3,470.9 1201.7,476.6C1201.8,478 1204.1,478 1204,476.6C1203.5,470.9 1203.4,465.1 1203.6,459.4C1203.6,458.8 1203.1,458.2 1202.5,458.3C1190.2,459.9 1177.9,460.5 1165.5,460.3C1163.9,460.2 1163.9,462.4 1165.4,462.5Z" style="fill:rgb(22,22,22);fill-rule:nonzero;"/>
                <path id="Shape30" serif:id="Shape" d="M1166.3,483.1C1178.6,483.3 1190.7,482 1202.7,479.3C1204.1,479 1203.5,476.8 1202.1,477.1C1190.3,479.7 1178.4,481 1166.3,480.8C1164.9,480.8 1164.9,483 1166.3,483.1ZM1171,469.5C1178.6,470 1186.1,469.6 1193.7,468.4C1195.1,468.2 1194.5,466 1193.1,466.2C1185.8,467.4 1178.4,467.7 1171,467.2C1169.6,467.1 1169.6,469.4 1171,469.5ZM1175.8,475.8C1183.7,475.6 1191.3,474.1 1198.8,471.4C1200.1,470.9 1199.6,468.7 1198.2,469.2C1191,471.9 1183.5,473.3 1175.8,473.6C1174.4,473.5 1174.3,475.8 1175.8,475.8Z" style="fill:rgb(22,22,22);fill-rule:nonzero;"/>
                <path id="Path53" serif:id="Path" d="M1036.7,506C1038.5,463.8 1040.3,421.6 1042,379.3C1100.4,374.6 1158.9,370 1217.3,365.3C1216,405.3 1214.6,445.3 1213.3,485.3C1154.4,492.2 1095.6,499.1 1036.7,506Z" style="fill:rgb(109,108,108);fill-opacity:0.2;fill-rule:nonzero;"/>
                <path id="Path54" serif:id="Path" d="M1195.3,338C1195.6,349.6 1195,363.4 1192,378.7C1184.6,416.3 1166.8,443.4 1154.7,458.7C1162.9,469.6 1171.1,480.5 1179.4,491.4L1104.1,500.1C1108.1,454.3 1112.1,408.5 1116.1,362.8C1114.8,356.8 1113.4,350.8 1112.1,344.8C1139.8,342.4 1167.6,340.2 1195.3,338Z" style="fill:rgb(109,108,108);fill-opacity:0.2;fill-rule:nonzero;"/>
                <path id="Path55" serif:id="Path" d="M1125.7,207.4C1146.6,204.6 1171.5,252.6 1181.4,287.1C1192.8,326.8 1187.8,361.1 1183.7,379.2C1175.7,414.7 1159.1,439.7 1148.7,453.2C1150.3,458.5 1154,472.9 1147.9,488.7C1138.9,511.8 1114.5,522.9 1112.6,520.8C1112,520.1 1113.2,517.2 1122.7,506.3C1120.7,508.4 1106.3,522.7 1090.1,519.3C1087.3,518.7 1083.8,518 1081.8,515.2C1077.1,508.4 1084.9,493 1101.5,475.9C1083.4,480.4 1078.6,479.2 1077.7,477.2C1075.4,472.4 1093.9,458.8 1100.6,453.8C1110.5,446.5 1119.4,441.5 1125.5,438.4C1142.6,402.9 1141.7,375.2 1140.2,362.2C1138,343 1130.8,322.1 1129.4,318.1C1125.4,306.6 1123.5,304 1115.5,283.3C1102.6,250.1 1102.6,244.4 1103.1,240C1104.9,226.8 1113.8,209 1125.7,207.4Z" style="fill:white;fill-rule:nonzero;stroke:rgb(22,22,22);stroke-width:2px;"/>
                <path id="Shape31" serif:id="Shape" d="M1082.2,512.4C1093.3,506.1 1103,498 1111.1,488.2C1112.3,486.7 1110.2,484.6 1109,486.1C1101.1,495.7 1091.6,503.7 1080.7,509.9C1079,510.7 1080.5,513.3 1082.2,512.4ZM1092,519.1C1103,513.4 1112.4,505.5 1120,495.7C1121.2,494.2 1118.6,492.7 1117.4,494.2C1110.2,503.6 1101,511.1 1090.5,516.5C1088.8,517.4 1090.3,520 1092,519.1Z" style="fill:rgb(22,22,22);fill-rule:nonzero;"/>
                <path id="Path56" serif:id="Path" d="M1117.3,212.2C1097.4,229.5 1178.6,305.4 1164.7,391.6C1155.2,450.7 1115.8,489.3 1115.8,489.3C1104.8,500.3 1084.1,513.8 1086.6,518.5C1088.4,521.9 1100.9,518.8 1105.4,517.4C1113.9,514.8 1119.8,510.4 1123.1,507.5C1118.1,513.1 1112.4,520 1113.6,521.4C1115.3,523.2 1129.5,515.8 1138.4,505.4C1153.8,487.4 1151.6,462.4 1150.1,452.2C1153.7,447.5 1158.4,440.9 1163.2,432.5C1167.6,425 1180.3,401.6 1185.8,369.8C1195.5,313.5 1175.6,269.1 1167.6,251.7C1160.4,236.2 1148.2,210.5 1129.7,209.4C1127.3,209.1 1121.2,208.8 1117.3,212.2Z" style="fill:rgb(109,108,108);fill-opacity:0.17;fill-rule:nonzero;"/>
                <path id="Path57" serif:id="Path" d="M1184.7,368.2C1179.3,383.9 1172.9,400.4 1165.3,417.7C1159.9,430 1154.4,441.5 1148.8,452.4C1146,461.4 1140.7,474.9 1130.2,488.8C1119.2,503.4 1107.1,512.3 1099,517.4C1101.3,517.5 1104.1,517.3 1107.2,516.5C1115,514.7 1120.2,510.4 1122.8,507.8C1119.8,511.6 1116.7,515.3 1113.7,519.1C1116.1,518.7 1119.9,518 1124.1,516.1C1146.1,506.2 1150.7,479.3 1151,477.5C1151.8,472.6 1152.3,464.2 1149.3,453.8C1156.5,445.3 1165.6,432.6 1172.9,415.5C1181,396.7 1183.7,379.8 1184.7,368.2Z" style="fill:rgb(109,108,108);fill-opacity:0.22;fill-rule:nonzero;"/>
                <path id="Path58" serif:id="Path" d="M944.6,141.6C928.5,160 939.6,185.7 941.1,189.2C946.7,202.2 961.2,220.7 979.6,219.2C993,218 1001.5,206.7 1003.6,203.7C1018.4,182.4 1013.5,141.7 988.5,131.2C974.7,125.4 955.7,128.8 944.6,141.6Z" style="fill:rgb(181,189,0);fill-rule:nonzero;"/>
                <path id="Path59" serif:id="Path" d="M985.2,158C985.9,165.9 994.2,167.6 999.8,180.6C1003.8,190 1003.8,199.2 1003.1,205.8C1009.6,206.4 1021.6,206.7 1035.2,201.5C1045.9,197.4 1053.4,191.5 1057.9,187.4C1055.8,182.7 1052.7,175.8 1049,167.6C1033,132.7 1030.4,129.7 1026.5,128.2C1010.9,122.3 983.9,143.3 985.2,158Z" style="fill:white;fill-rule:nonzero;stroke:rgb(22,22,22);stroke-width:2px;"/>
                <path id="Path60" serif:id="Path" d="M927.6,54.7C924.2,59.5 922.1,65.4 921.8,90.7C921.6,112.3 922.8,132 924.8,149.5L938.3,141.7C940.3,146.6 943.7,153.3 949.5,159.8C961,172.7 975,177.1 981.2,178.7C987.7,177.1 1003.9,172.1 1016.2,156.8C1024.3,146.6 1026.9,136.5 1027.5,134.2C1031.2,119.1 1027.6,106.6 1025.7,101.4C1028.1,100.3 1031.8,98.2 1034.6,94.4C1040.5,86.4 1042.1,72.1 1034.8,67.3C1029.4,63.7 1019.8,65.8 1012.6,73.2C1011,69.5 1008.5,64.4 1004.5,59.1C1003.5,57.8 996,48 986.8,42.9C969.1,32.7 939.8,37.5 927.6,54.7Z" style="fill:white;fill-rule:nonzero;stroke:rgb(22,22,22);stroke-width:2px;"/>
                <path id="Path61" serif:id="Path" d="M920.3,86.1C916.3,85.4 908.9,83.3 905.4,77.2C899.4,66.9 908.2,51.2 910.4,47.3C912.2,44 917,36.1 937.4,21.8C952.9,10.9 960.7,5.5 969.1,2.9C998.9,-6 1026.2,9.4 1031.3,12.3C1042,18.4 1048.8,25 1054.2,30.2C1062.5,38.2 1071.8,47.4 1082.2,58C1108.9,92.6 1118.3,124.2 1122.1,143.1C1126.4,164.5 1130.8,186.3 1118,199.1C1105.2,211.9 1081.8,209.3 1067.5,203.2C1047.6,194.7 1039.1,176.7 1032.5,162.8C1021.3,139 1020.6,116.2 1021.7,101.4C1031.7,98.5 1036.8,89.1 1034.5,82C1032.7,76.4 1026,70.8 1019.1,72.8C1013.8,74.3 1010,79.8 1010.3,86.2C1005.5,86.1 992.7,85 980.5,75.8C971.6,69.1 967.1,61.1 965,56.7C959.5,57.4 948.5,59.4 937.4,67.4C928.1,73.8 922.9,81.5 920.3,86.1Z" style="fill:rgb(181,189,0);fill-rule:nonzero;"/>
                <g transform="matrix(0.966537,0,0,0.966537,-3.04734,875.414)">
                    <path d="M0,40.721L2.047,45.097L52.726,27.176L49.449,-4.376L0,-4.376L0,40.721Z" style="fill:rgb(202,210,0);fill-rule:nonzero;"/>
                </g>
                <g transform="matrix(0.966537,0,0,0.966537,48.5578,981.2)">
                    <path d="M0,-113.825L3.554,-79.605L-53.389,-59.469L-53.392,-59.475L-53.392,0L64.152,0L64.152,-113.825L0,-113.825Z" style="fill:rgb(37,48,59);fill-rule:nonzero;"/>
                </g>
                <g transform="matrix(0.966537,0,0,0.966537,42.733,923.721)">
                    <path d="M0,-112.384L-73.364,-55.571L-47.365,-0.005L-47.363,0L9.58,-20.136L6.026,-54.356L0,-112.384ZM-47.365,-9.258L-68.483,-54.391L-3.173,-104.967L2.083,-54.356L5.36,-22.803L-45.318,-4.883L-47.365,-9.258Z" style="fill:rgb(0,155,132);fill-rule:nonzero;"/>
                </g>
                <g transform="matrix(0.461632,0,0,0.461632,-122.228,715.055)">
                    <g transform="matrix(2.09374,0,0,2.09374,284.848,492.976)">
                        <path d="M0,3.17C0,3.384 0.05,3.504 0.223,3.671L1.109,4.529C1.282,4.696 1.454,4.744 1.749,4.744L5.592,4.744C5.887,4.744 6.06,4.696 6.232,4.529L7.119,3.671C7.291,3.504 7.341,3.384 7.341,3.17L7.341,-3.745C7.341,-3.96 7.291,-4.079 7.119,-4.246L6.232,-5.104C6.06,-5.271 5.887,-5.318 5.592,-5.318L1.749,-5.318C1.454,-5.318 1.282,-5.271 1.109,-5.104L0.223,-4.246C0.05,-4.079 0,-3.96 0,-3.745L0,3.17ZM10.099,3.218C10.099,4.434 9.855,4.84 9.139,5.531L8.623,6.032L10.518,10.085L8.204,10.992L5.913,7.248L1.33,7.248C0.467,7.248 -0.173,7.105 -0.863,6.437L-1.797,5.531C-2.513,4.84 -2.758,4.434 -2.758,3.218L-2.758,-3.792C-2.758,-5.009 -2.513,-5.413 -1.797,-6.106L-0.863,-7.011C-0.173,-7.68 0.467,-7.822 1.33,-7.822L6.011,-7.822C6.874,-7.822 7.514,-7.68 8.204,-7.011L9.139,-6.106C9.855,-5.413 10.099,-5.009 10.099,-3.792L10.099,3.218Z" style="fill:white;fill-rule:nonzero;"/>
                    </g>
                    <g transform="matrix(2.09374,0,0,2.09374,328.449,508.15)">
                        <path d="M0,-11.708L2.612,-11.708L2.612,-1.811C2.612,-1.144 2.365,-0.882 1.773,-0.644L0.764,-0.238C0.295,-0.048 -0.074,0 -0.616,0L-4.754,0C-5.616,0 -6.232,-0.142 -6.922,-0.81L-7.464,-1.335C-8.178,-2.026 -8.376,-2.504 -8.376,-3.696L-8.376,-11.708L-5.765,-11.708L-5.765,-3.552C-5.765,-3.337 -5.715,-3.219 -5.542,-3.052L-5.025,-2.552C-4.852,-2.384 -4.68,-2.336 -4.385,-2.336L-1.083,-2.336C-0.887,-2.336 -0.738,-2.36 -0.616,-2.408L-0.197,-2.575C-0.05,-2.646 0,-2.694 0,-2.838L0,-11.708Z" style="fill:white;fill-rule:nonzero;"/>
                    </g>
                    <g transform="matrix(2.09374,0,0,2.09374,354.1,488.132)">
                        <path d="M0,7.272C0.197,7.272 0.345,7.249 0.467,7.201L0.887,7.034C1.033,6.962 1.083,6.915 1.083,6.772L1.083,4.506C1.083,4.435 1.059,4.387 0.985,4.363L0.714,4.291C0.245,4.172 -0.124,4.125 -0.592,4.125L-3.548,4.125C-3.843,4.125 -3.992,4.172 -4.164,4.339L-4.557,4.721C-4.73,4.888 -4.78,5.008 -4.78,5.222L-4.78,6.175C-4.78,6.39 -4.73,6.509 -4.557,6.676L-4.164,7.058C-3.992,7.225 -3.843,7.272 -3.548,7.272L0,7.272ZM-3.769,9.561C-4.756,9.561 -5.346,9.394 -5.961,8.798L-6.529,8.25C-7.169,7.631 -7.367,7.201 -7.367,6.342L-7.367,5.055C-7.367,4.197 -7.169,3.767 -6.529,3.147L-6.086,2.718C-5.47,2.122 -4.878,1.955 -3.893,1.955L-0.764,1.955C-0.199,1.955 0.271,2.002 0.664,2.122L1.083,2.241L1.083,1.191C1.083,0.977 1.033,0.858 0.861,0.691L0.345,0.19C0.172,0.023 0,-0.025 -0.297,-0.025L-3.081,-0.025C-3.4,-0.025 -3.596,-0 -3.941,0.142L-5.863,0.953L-6.922,-0.883L-5.494,-1.765C-4.878,-2.147 -4.337,-2.289 -3.203,-2.289L0.072,-2.289C0.935,-2.289 1.55,-2.147 2.24,-1.479L2.782,-0.955C3.498,-0.262 3.695,0.214 3.695,1.407L3.695,7.75C3.695,8.417 3.448,8.68 2.856,8.917L1.847,9.324C1.378,9.513 1.009,9.561 0.467,9.561L-3.769,9.561Z" style="fill:white;fill-rule:nonzero;"/>
                    </g>
                    <g transform="matrix(2.09374,0,0,2.09374,382.225,478.243)">
                        <path d="M0,11.948C0.197,11.948 0.345,11.924 0.467,11.877L0.887,11.71C1.035,11.638 1.083,11.59 1.083,11.446L1.083,5.606C1.083,5.439 1.035,5.367 0.887,5.319L-0.443,4.842C-0.591,4.794 -0.74,4.77 -0.936,4.77L-3.474,4.77C-3.769,4.77 -3.941,4.818 -4.114,4.985L-4.631,5.486C-4.803,5.653 -4.854,5.772 -4.854,5.987L-4.854,10.733C-4.854,10.947 -4.803,11.065 -4.631,11.233L-4.114,11.733C-3.941,11.9 -3.769,11.948 -3.474,11.948L0,11.948ZM-3.843,14.284C-4.706,14.284 -5.321,14.142 -6.011,13.474L-6.553,12.95C-7.267,12.258 -7.463,11.781 -7.463,10.589L-7.463,6.13C-7.463,4.938 -7.267,4.461 -6.553,3.769L-6.011,3.245C-5.321,2.576 -4.706,2.434 -3.843,2.434L-0.96,2.434C-0.443,2.434 -0.124,2.481 0.394,2.672L1.083,2.935L1.083,-2.336L3.695,-2.336L3.695,12.473C3.695,13.14 3.448,13.403 2.857,13.64L1.848,14.047C1.38,14.236 1.009,14.284 0.467,14.284L-3.843,14.284Z" style="fill:white;fill-rule:nonzero;"/>
                    </g>
                    <g transform="matrix(2.09374,0,0,2.09374,409.573,507.852)">
                        <path d="M0,-11.708L0,-9.372L-2.734,-9.372C-3.029,-9.372 -3.201,-9.324 -3.374,-9.157L-3.891,-8.656C-4.064,-8.489 -4.114,-8.37 -4.114,-8.155L-4.114,0L-6.725,0L-6.725,-8.012C-6.725,-9.204 -6.527,-9.681 -5.812,-10.373L-5.272,-10.897C-4.581,-11.566 -3.966,-11.708 -3.103,-11.708L0,-11.708Z" style="fill:white;fill-rule:nonzero;"/>
                    </g>
                    <g transform="matrix(2.09374,0,0,2.09374,427.481,488.132)">
                        <path d="M0,7.272C0.197,7.272 0.345,7.249 0.467,7.201L0.887,7.034C1.033,6.962 1.083,6.915 1.083,6.772L1.083,4.506C1.083,4.435 1.059,4.387 0.985,4.363L0.714,4.291C0.245,4.172 -0.125,4.125 -0.592,4.125L-3.549,4.125C-3.843,4.125 -3.992,4.172 -4.164,4.339L-4.557,4.721C-4.73,4.888 -4.78,5.008 -4.78,5.222L-4.78,6.175C-4.78,6.39 -4.73,6.509 -4.557,6.676L-4.164,7.058C-3.992,7.225 -3.843,7.272 -3.549,7.272L0,7.272ZM-3.769,9.561C-4.756,9.561 -5.346,9.394 -5.961,8.798L-6.529,8.25C-7.169,7.631 -7.366,7.201 -7.366,6.342L-7.366,5.055C-7.366,4.197 -7.169,3.767 -6.529,3.147L-6.086,2.718C-5.47,2.122 -4.879,1.955 -3.894,1.955L-0.764,1.955C-0.198,1.955 0.27,2.002 0.664,2.122L1.083,2.241L1.083,1.191C1.083,0.977 1.033,0.858 0.86,0.691L0.345,0.19C0.172,0.023 0,-0.025 -0.297,-0.025L-3.081,-0.025C-3.4,-0.025 -3.597,-0 -3.942,0.142L-5.863,0.953L-6.922,-0.883L-5.494,-1.765C-4.879,-2.147 -4.337,-2.289 -3.203,-2.289L0.072,-2.289C0.935,-2.289 1.551,-2.147 2.24,-1.479L2.782,-0.955C3.498,-0.262 3.694,0.214 3.694,1.407L3.694,7.75C3.694,8.417 3.448,8.68 2.856,8.917L1.847,9.324C1.378,9.513 1.009,9.561 0.467,9.561L-3.769,9.561Z" style="fill:white;fill-rule:nonzero;"/>
                    </g>
                    <g transform="matrix(2.09374,0,0,2.09374,446.061,483.339)">
                        <path d="M0,11.708L-2.612,11.708L-2.612,1.812C-2.612,1.144 -2.365,0.882 -1.773,0.643L-0.764,0.238C-0.297,0.047 0.074,0 0.615,0L4.631,0C5.494,0 6.109,0.142 6.797,0.81L6.946,0.953L7.094,0.81C7.784,0.142 8.4,0 9.263,0L12.932,0C13.793,0 14.41,0.142 15.099,0.81L15.641,1.335C16.357,2.027 16.554,2.504 16.554,3.696L16.554,11.708L13.942,11.708L13.942,3.553C13.942,3.338 13.892,3.219 13.72,3.052L13.204,2.551C13.032,2.384 12.859,2.336 12.562,2.336L9.632,2.336C9.335,2.336 9.162,2.384 8.99,2.551L8.474,3.052C8.302,3.219 8.251,3.338 8.251,3.553L8.251,11.708L5.64,11.708L5.64,3.553C5.64,3.338 5.592,3.219 5.42,3.052L4.902,2.551C4.729,2.384 4.557,2.336 4.26,2.336L1.083,2.336C0.887,2.336 0.738,2.36 0.615,2.408L0.196,2.575C0.048,2.646 0,2.694 0,2.837L0,11.708Z" style="fill:white;fill-rule:nonzero;"/>
                    </g>
                    <g transform="matrix(2.09374,0,0,2.09374,281.528,552.812)">
                        <path d="M0,-16.529L6.798,-16.529L6.798,-15.117L4.373,-15.117L4.373,-1.387L6.798,-1.387L6.798,0L0,0L0,-1.387L2.426,-1.387L2.426,-15.117L0,-15.117L0,-16.529Z" style="fill:rgb(202,210,0);fill-rule:nonzero;"/>
                    </g>
                    <g transform="matrix(2.09374,0,0,2.09374,303.798,525.405)">
                        <path d="M0,13.09L-1.84,13.09L-1.84,1.866C-1.84,1.36 -1.679,1.039 -1.173,0.827L0.16,0.293C0.773,0.053 1.04,0 1.706,0L5.866,0C6.879,0 7.332,0.186 7.918,0.773L8.611,1.466C9.331,2.186 9.438,2.453 9.438,3.652L9.438,13.09L7.598,13.09L7.598,3.598C7.598,3.172 7.518,3.012 7.199,2.693L6.585,2.079C6.239,1.76 6.132,1.706 5.599,1.706L1.813,1.706C1.653,1.706 1.493,1.732 1.36,1.786L0.16,2.266C0.053,2.319 0,2.373 0,2.505L0,13.09Z" style="fill:rgb(202,210,0);fill-rule:nonzero;"/>
                    </g>
                    <g transform="matrix(2.09374,0,0,2.09374,333.713,537.91)">
                        <path d="M0,1.305C-0.826,1.225 -1.466,1.012 -1.893,0.612C-2.346,0.186 -2.586,-0.481 -2.586,-1.521L-2.586,-2.374C-2.586,-3.44 -2.479,-3.787 -1.759,-4.507L-1.066,-5.2C-0.453,-5.787 0,-5.973 1.013,-5.973L3.733,-5.973C4.666,-5.973 5.066,-5.893 5.706,-5.492L7.199,-4.587L6.479,-3.28L4.666,-4.107C4.293,-4.267 4.026,-4.32 3.546,-4.32L1.227,-4.32C0.693,-4.32 0.587,-4.267 0.24,-3.947L-0.4,-3.307C-0.72,-2.987 -0.8,-2.827 -0.8,-2.401L-0.8,-1.414C-0.8,-0.721 -0.613,-0.481 0.133,-0.401L5.012,0.053C6.025,0.159 6.612,0.372 7.039,0.798C7.465,1.225 7.652,1.865 7.652,2.772L7.652,3.625C7.652,4.825 7.545,5.091 6.825,5.811L6.132,6.504C5.545,7.091 5.092,7.278 4.079,7.278L0.667,7.278C-0.266,7.278 -0.666,7.197 -1.333,6.797L-2.826,5.891L-2.106,4.584L-0.293,5.438C0.08,5.598 0.347,5.624 0.827,5.624L3.839,5.624C4.373,5.624 4.479,5.571 4.826,5.251L5.465,4.611C5.786,4.291 5.866,4.131 5.866,3.705L5.866,2.772C5.866,2.079 5.679,1.839 4.932,1.759L0,1.305Z" style="fill:rgb(202,210,0);fill-rule:nonzero;"/>
                    </g>
                    <g transform="matrix(2.09374,0,0,2.09374,369.769,522.336)">
                        <path d="M0,13.009L0,14.716L-2.826,14.716C-3.839,14.716 -4.292,14.529 -4.879,13.942L-5.572,13.249C-6.292,12.53 -6.398,12.263 -6.398,11.063L-6.398,3.172L-8.585,3.172L-8.585,1.625L-6.398,1.625L-6.398,-1.707L-4.559,-1.707L-4.559,1.625L-0.293,1.625L-0.293,3.172L-4.559,3.172L-4.559,11.117C-4.559,11.543 -4.479,11.703 -4.159,12.022L-3.546,12.636C-3.199,12.956 -3.092,13.009 -2.559,13.009L0,13.009Z" style="fill:rgb(202,210,0);fill-rule:nonzero;"/>
                    </g>
                    <g transform="matrix(2.09374,0,0,2.09374,376.52,552.812)">
                        <path d="M0,-17.302L1.653,-17.302C1.946,-17.302 2.053,-17.223 2.053,-16.929L2.053,-15.516C2.053,-15.223 1.946,-15.143 1.653,-15.143L0.4,-15.143C0.106,-15.143 0,-15.223 0,-15.516L0,-17.302ZM2.08,0L0.24,0L0.24,-11.384L-1.733,-11.384L-1.733,-12.931L1.626,-12.931C1.973,-12.931 2.08,-12.823 2.08,-12.451L2.08,0Z" style="fill:rgb(202,210,0);fill-rule:nonzero;"/>
                    </g>
                    <g transform="matrix(2.09374,0,0,2.09374,403.312,522.336)">
                        <path d="M0,13.009L0,14.716L-2.826,14.716C-3.839,14.716 -4.292,14.529 -4.879,13.942L-5.572,13.249C-6.292,12.53 -6.399,12.263 -6.399,11.063L-6.399,3.172L-8.585,3.172L-8.585,1.625L-6.399,1.625L-6.399,-1.707L-4.559,-1.707L-4.559,1.625L-0.294,1.625L-0.294,3.172L-4.559,3.172L-4.559,11.117C-4.559,11.543 -4.479,11.703 -4.159,12.022L-3.546,12.636C-3.2,12.956 -3.093,13.009 -2.56,13.009L0,13.009Z" style="fill:rgb(202,210,0);fill-rule:nonzero;"/>
                    </g>
                    <g transform="matrix(2.09374,0,0,2.09374,427.199,553.148)">
                        <path d="M0,-13.091L1.84,-13.091L1.84,-1.867C1.84,-1.361 1.68,-1.04 1.173,-0.827L-0.16,-0.294C-0.773,-0.054 -1.039,0 -1.706,0L-5.785,0C-6.798,0 -7.251,-0.187 -7.839,-0.774L-8.531,-1.467C-9.252,-2.186 -9.358,-2.453 -9.358,-3.653L-9.358,-13.091L-7.518,-13.091L-7.518,-3.599C-7.518,-3.173 -7.438,-3.013 -7.118,-2.694L-6.505,-2.08C-6.158,-1.76 -6.052,-1.707 -5.519,-1.707L-1.812,-1.707C-1.653,-1.707 -1.492,-1.733 -1.359,-1.787L-0.16,-2.267C-0.053,-2.32 0,-2.373 0,-2.506L0,-13.091Z" style="fill:rgb(202,210,0);fill-rule:nonzero;"/>
                    </g>
                    <g transform="matrix(2.09374,0,0,2.09374,453.04,522.336)">
                        <path d="M0,13.009L0,14.716L-2.826,14.716C-3.839,14.716 -4.292,14.529 -4.879,13.942L-5.572,13.249C-6.292,12.53 -6.398,12.263 -6.398,11.063L-6.398,3.172L-8.585,3.172L-8.585,1.625L-6.398,1.625L-6.398,-1.707L-4.559,-1.707L-4.559,1.625L-0.293,1.625L-0.293,3.172L-4.559,3.172L-4.559,11.117C-4.559,11.543 -4.479,11.703 -4.159,12.022L-3.546,12.636C-3.199,12.956 -3.093,13.009 -2.56,13.009L0,13.009Z" style="fill:rgb(202,210,0);fill-rule:nonzero;"/>
                    </g>
                    <g transform="matrix(2.09374,0,0,2.09374,460.74,540.924)">
                        <path d="M0,-1.574L7.492,-1.574L7.492,-3.894C7.492,-4.32 7.386,-4.479 7.066,-4.799L6.453,-5.413C6.105,-5.733 5.999,-5.786 5.466,-5.786L2,-5.786C1.467,-5.786 1.36,-5.733 1.013,-5.413L0.4,-4.799C0.08,-4.479 0,-4.32 0,-3.894L0,-1.574ZM0,0.026L0,2.292C0,2.718 0.08,2.879 0.4,3.198L1.013,3.812C1.36,4.158 1.467,4.185 2,4.185L5.572,4.185C6.053,4.185 6.345,4.131 6.718,3.971L8.372,3.172L9.118,4.451L7.625,5.358C6.986,5.758 6.612,5.838 5.679,5.838L1.733,5.838C0.72,5.838 0.267,5.652 -0.32,5.064L-1.013,4.371C-1.733,3.652 -1.84,3.385 -1.84,2.185L-1.84,-3.76C-1.84,-4.959 -1.733,-5.226 -1.013,-5.946L-0.32,-6.639C0.267,-7.226 0.72,-7.412 1.733,-7.412L5.732,-7.412C6.745,-7.412 7.198,-7.226 7.785,-6.639L8.478,-5.946C9.198,-5.226 9.305,-4.959 9.305,-3.76L9.305,-0.854C9.305,-0.241 8.984,0.026 8.478,0.026L0,0.026Z" style="fill:rgb(202,210,0);fill-rule:nonzero;"/>
                    </g>
                </g>
                <g transform="matrix(0.461632,0,0,0.461632,-122.228,715.055)">
                    <g transform="matrix(2.09374,0,0,2.09374,268.431,594.654)">
                        <path d="M0,12.31C-1.811,12.31 -3.114,11.885 -4.265,10.712L-3.046,9.505C-2.166,10.39 -1.202,10.661 0.034,10.661C1.608,10.661 2.521,9.981 2.521,8.808C2.521,8.28 2.369,7.839 2.048,7.55C1.743,7.26 1.438,7.142 0.728,7.039L-0.694,6.835C-1.675,6.699 -2.454,6.359 -2.978,5.866C-3.571,5.305 -3.858,4.539 -3.858,3.554C-3.858,1.446 -2.335,0 0.169,0C1.76,0 2.877,0.408 3.909,1.377L2.741,2.533C1.997,1.82 1.134,1.598 0.118,1.598C-1.303,1.598 -2.081,2.414 -2.081,3.486C-2.081,3.927 -1.946,4.319 -1.625,4.608C-1.32,4.88 -0.829,5.084 -0.271,5.169L1.1,5.373C2.217,5.543 2.843,5.815 3.351,6.274C4.011,6.852 4.332,7.719 4.332,8.757C4.332,10.984 2.521,12.31 0,12.31" style="fill:rgb(37,48,59);fill-rule:nonzero;"/>
                    </g>
                    <g transform="matrix(2.09374,0,0,2.09374,287.169,601.952)">
                        <path d="M0,8.824C-1.929,8.824 -3.824,7.634 -3.824,4.403C-3.824,1.173 -1.929,0 0,0C1.185,0 2.014,0.34 2.826,1.207L1.641,2.363C1.1,1.768 0.677,1.547 0,1.547C-0.66,1.547 -1.218,1.819 -1.591,2.312C-1.963,2.788 -2.098,3.4 -2.098,4.403C-2.098,5.406 -1.963,6.035 -1.591,6.512C-1.218,7.005 -0.66,7.277 0,7.277C0.677,7.277 1.1,7.056 1.641,6.461L2.826,7.601C2.014,8.467 1.185,8.824 0,8.824" style="fill:rgb(37,48,59);fill-rule:nonzero;"/>
                    </g>
                    <g transform="matrix(2.09374,0,0,2.09374,139.937,-63.2363)">
                        <path d="M74.126,317.806L75.852,317.806L75.852,326.426L74.126,326.426L74.126,317.806ZM74.075,314.27L75.903,314.27L75.903,316.106L74.075,316.106L74.075,314.27Z" style="fill:rgb(37,48,59);fill-rule:nonzero;"/>
                    </g>
                    <g transform="matrix(2.09374,0,0,2.09374,312.601,615.124)">
                        <path d="M0,-3.758C-0.271,-4.404 -0.88,-4.846 -1.692,-4.846C-2.505,-4.846 -3.131,-4.404 -3.401,-3.758C-3.571,-3.367 -3.605,-3.111 -3.621,-2.585L0.237,-2.585C0.22,-3.111 0.169,-3.367 0,-3.758M-3.621,-1.378C-3.621,0.102 -2.843,1.037 -1.438,1.037C-0.474,1.037 0.034,0.765 0.643,0.153L1.743,1.19C0.863,2.074 0.034,2.533 -1.472,2.533C-3.621,2.533 -5.331,1.394 -5.331,-1.888C-5.331,-4.676 -3.892,-6.291 -1.692,-6.291C0.609,-6.291 1.946,-4.591 1.946,-2.142L1.946,-1.378L-3.621,-1.378Z" style="fill:rgb(37,48,59);fill-rule:nonzero;"/>
                    </g>
                    <g transform="matrix(2.09374,0,0,2.09374,330.276,601.951)">
                        <path d="M0,8.723L0,3.469C0,2.126 -0.762,1.548 -1.726,1.548C-2.691,1.548 -3.503,2.142 -3.503,3.469L-3.503,8.723L-5.229,8.723L-5.229,0.103L-3.537,0.103L-3.537,0.969C-2.944,0.324 -2.115,0 -1.252,0C-0.372,0 0.355,0.289 0.863,0.783C1.523,1.429 1.726,2.245 1.726,3.214L1.726,8.723L0,8.723Z" style="fill:rgb(37,48,59);fill-rule:nonzero;"/>
                    </g>
                    <g transform="matrix(2.09374,0,0,2.09374,344.407,601.952)">
                        <path d="M0,8.824C-1.929,8.824 -3.825,7.634 -3.825,4.403C-3.825,1.173 -1.929,0 0,0C1.185,0 2.014,0.34 2.826,1.207L1.641,2.363C1.1,1.768 0.677,1.547 0,1.547C-0.66,1.547 -1.218,1.819 -1.591,2.312C-1.963,2.788 -2.098,3.4 -2.098,4.403C-2.098,5.406 -1.963,6.035 -1.591,6.512C-1.218,7.005 -0.66,7.277 0,7.277C0.677,7.277 1.1,7.056 1.641,6.461L2.826,7.601C2.014,8.467 1.185,8.824 0,8.824" style="fill:rgb(37,48,59);fill-rule:nonzero;"/>
                    </g>
                    <g transform="matrix(2.09374,0,0,2.09374,362.614,615.124)">
                        <path d="M0,-3.758C-0.271,-4.404 -0.88,-4.846 -1.692,-4.846C-2.505,-4.846 -3.131,-4.404 -3.401,-3.758C-3.571,-3.367 -3.604,-3.111 -3.621,-2.585L0.237,-2.585C0.22,-3.111 0.169,-3.367 0,-3.758M-3.621,-1.378C-3.621,0.102 -2.843,1.037 -1.438,1.037C-0.474,1.037 0.034,0.765 0.643,0.153L1.743,1.19C0.863,2.074 0.034,2.533 -1.472,2.533C-3.621,2.533 -5.331,1.394 -5.331,-1.888C-5.331,-4.676 -3.892,-6.291 -1.692,-6.291C0.609,-6.291 1.946,-4.591 1.946,-2.142L1.946,-1.378L-3.621,-1.378Z" style="fill:rgb(37,48,59);fill-rule:nonzero;"/>
                    </g>
                    <g transform="matrix(2.09374,0,0,2.09374,405.636,594.866)">
                        <path d="M0,12.107L0,6.819L-4.891,6.819L-4.891,12.107L-6.718,12.107L-6.718,0L-4.891,0L-4.891,5.17L0,5.17L0,0L1.828,0L1.828,12.107L0,12.107Z" style="fill:rgb(37,48,59);fill-rule:nonzero;"/>
                    </g>
                    <g transform="matrix(2.09374,0,0,2.09374,425.15,615.124)">
                        <path d="M0,-3.758C-0.27,-4.404 -0.879,-4.846 -1.692,-4.846C-2.505,-4.846 -3.13,-4.404 -3.402,-3.758C-3.57,-3.367 -3.604,-3.111 -3.622,-2.585L0.237,-2.585C0.22,-3.111 0.17,-3.367 0,-3.758M-3.622,-1.378C-3.622,0.102 -2.843,1.037 -1.438,1.037C-0.474,1.037 0.034,0.765 0.643,0.153L1.744,1.19C0.863,2.074 0.034,2.533 -1.472,2.533C-3.622,2.533 -5.331,1.394 -5.331,-1.888C-5.331,-4.676 -3.892,-6.291 -1.692,-6.291C0.61,-6.291 1.946,-4.591 1.946,-2.142L1.946,-1.378L-3.622,-1.378Z" style="fill:rgb(37,48,59);fill-rule:nonzero;"/>
                    </g>
                    <g transform="matrix(2.09374,0,0,2.09374,441.48,610.138)">
                        <path d="M0,1.004L-2.014,1.004C-3.029,1.004 -3.554,1.463 -3.554,2.245C-3.554,3.028 -3.063,3.469 -1.98,3.469C-1.32,3.469 -0.83,3.418 -0.373,2.976C-0.118,2.721 0,2.313 0,1.701L0,1.004ZM0.034,4.813L0.034,4.031C-0.593,4.66 -1.185,4.914 -2.251,4.914C-3.318,4.914 -4.028,4.66 -4.552,4.133C-4.992,3.673 -5.229,3.011 -5.229,2.279C-5.229,0.834 -4.231,-0.203 -2.268,-0.203L0,-0.203L0,-0.815C0,-1.903 -0.542,-2.43 -1.879,-2.43C-2.826,-2.43 -3.283,-2.21 -3.757,-1.597L-4.891,-2.669C-4.078,-3.621 -3.233,-3.91 -1.811,-3.91C0.541,-3.91 1.726,-2.906 1.726,-0.951L1.726,4.813L0.034,4.813Z" style="fill:rgb(37,48,59);fill-rule:nonzero;"/>
                    </g>
                    <g transform="matrix(2.09374,0,0,2.09374,453.343,594.866)">
                        <path d="M0,12.107C-1.641,12.107 -2.352,11.002 -2.352,9.727L-2.352,0L-0.626,0L-0.626,9.625C-0.626,10.288 -0.389,10.627 0.305,10.627L1.067,10.627L1.067,12.107L0,12.107Z" style="fill:rgb(37,48,59);fill-rule:nonzero;"/>
                    </g>
                    <g transform="matrix(2.09374,0,0,2.09374,463.474,597.004)">
                        <path d="M0,11.086C-1.608,11.086 -2.352,9.93 -2.352,8.689L-2.352,3.944L-3.334,3.944L-3.334,2.619L-2.352,2.619L-2.352,0L-0.627,0L-0.627,2.619L1.032,2.619L1.032,3.944L-0.627,3.944L-0.627,8.604C-0.627,9.233 -0.322,9.606 0.322,9.606L1.032,9.606L1.032,11.086L0,11.086Z" style="fill:rgb(37,48,59);fill-rule:nonzero;"/>
                    </g>
                    <g transform="matrix(2.09374,0,0,2.09374,480.407,594.866)">
                        <path d="M0,12.107L0,6.819C0,5.51 -0.762,4.932 -1.727,4.932C-2.691,4.932 -3.47,5.526 -3.47,6.819L-3.47,12.107L-5.196,12.107L-5.196,0L-3.47,0L-3.47,4.353C-2.877,3.708 -2.099,3.384 -1.252,3.384C0.659,3.384 1.726,4.677 1.726,6.547L1.726,12.107L0,12.107Z" style="fill:rgb(37,48,59);fill-rule:nonzero;"/>
                    </g>
                    <g transform="matrix(2.09374,0,0,2.09374,265.561,650.746)">
                        <path d="M0,-8.808L0,-5.118L5.009,-5.118L5.009,-3.469L0,-3.469L0,1.649L-1.828,1.649L-1.828,-10.457L5.872,-10.457L5.872,-8.808L0,-8.808Z" style="fill:rgb(37,48,59);fill-rule:nonzero;"/>
                    </g>
                    <g transform="matrix(2.09374,0,0,2.09374,287.948,650.141)">
                        <path d="M0,-4.745C-0.322,-5.067 -0.762,-5.238 -1.269,-5.238C-1.777,-5.238 -2.2,-5.067 -2.521,-4.745C-3.046,-4.218 -3.114,-3.317 -3.114,-2.381C-3.114,-1.446 -3.046,-0.545 -2.521,-0.018C-2.2,0.305 -1.777,0.492 -1.269,0.492C-0.762,0.492 -0.322,0.305 0,-0.018C0.525,-0.545 0.592,-1.446 0.592,-2.381C0.592,-3.317 0.525,-4.218 0,-4.745M1.303,1.019C0.745,1.597 -0.102,2.04 -1.269,2.04C-2.437,2.04 -3.266,1.597 -3.825,1.019C-4.637,0.169 -4.84,-0.919 -4.84,-2.381C-4.84,-3.826 -4.637,-4.915 -3.825,-5.765C-3.266,-6.343 -2.437,-6.785 -1.269,-6.785C-0.102,-6.785 0.745,-6.343 1.303,-5.765C2.115,-4.915 2.318,-3.826 2.318,-2.381C2.318,-0.919 2.115,0.169 1.303,1.019" style="fill:rgb(37,48,59);fill-rule:nonzero;"/>
                    </g>
                    <g transform="matrix(2.09374,0,0,2.09374,304.844,650.141)">
                        <path d="M0,-4.745C-0.322,-5.067 -0.762,-5.238 -1.269,-5.238C-1.777,-5.238 -2.2,-5.067 -2.521,-4.745C-3.046,-4.218 -3.114,-3.317 -3.114,-2.381C-3.114,-1.446 -3.046,-0.545 -2.521,-0.018C-2.2,0.305 -1.777,0.492 -1.269,0.492C-0.762,0.492 -0.322,0.305 0,-0.018C0.525,-0.545 0.592,-1.446 0.592,-2.381C0.592,-3.317 0.525,-4.218 0,-4.745M1.303,1.019C0.745,1.597 -0.102,2.04 -1.269,2.04C-2.437,2.04 -3.266,1.597 -3.825,1.019C-4.637,0.169 -4.84,-0.919 -4.84,-2.381C-4.84,-3.826 -4.637,-4.915 -3.825,-5.765C-3.266,-6.343 -2.437,-6.785 -1.269,-6.785C-0.102,-6.785 0.745,-6.343 1.303,-5.765C2.115,-4.915 2.318,-3.826 2.318,-2.381C2.318,-0.919 2.115,0.169 1.303,1.019" style="fill:rgb(37,48,59);fill-rule:nonzero;"/>
                    </g>
                    <g transform="matrix(2.09374,0,0,2.09374,318.975,644.089)">
                        <path d="M0,-2.347C-1.557,-2.347 -1.794,-1.02 -1.794,0.51C-1.794,2.04 -1.557,3.383 0,3.383C1.557,3.383 1.777,2.04 1.777,0.51C1.777,-1.02 1.557,-2.347 0,-2.347M1.811,4.828L1.811,3.91C1.168,4.692 0.474,4.931 -0.457,4.931C-1.32,4.931 -2.081,4.642 -2.555,4.165C-3.418,3.298 -3.52,1.819 -3.52,0.51C-3.52,-0.799 -3.418,-2.262 -2.555,-3.129C-2.081,-3.606 -1.337,-3.894 -0.474,-3.894C0.44,-3.894 1.151,-3.673 1.777,-2.926L1.777,-7.278L3.503,-7.278L3.503,4.828L1.811,4.828Z" style="fill:rgb(37,48,59);fill-rule:nonzero;"/>
                    </g>
                    <g transform="matrix(2.09374,0,0,2.09374,139.937,4.83524)">
                        <rect x="102.256" y="298.039" width="1.828" height="12.106" style="fill:rgb(37,48,59);"/>
                    </g>
                    <g transform="matrix(2.09374,0,0,2.09374,373.555,635.936)">
                        <path d="M0,8.722L0,3.468C0,2.125 -0.762,1.547 -1.726,1.547C-2.691,1.547 -3.503,2.142 -3.503,3.468L-3.503,8.722L-5.229,8.722L-5.229,0.102L-3.537,0.102L-3.537,0.968C-2.944,0.323 -2.115,0 -1.252,0C-0.372,0 0.355,0.288 0.863,0.782C1.523,1.428 1.726,2.244 1.726,3.214L1.726,8.722L0,8.722Z" style="fill:rgb(37,48,59);fill-rule:nonzero;"/>
                    </g>
                    <g transform="matrix(2.09374,0,0,2.09374,392.257,635.936)">
                        <path d="M0,8.722L0,3.468C0,2.125 -0.762,1.547 -1.726,1.547C-2.691,1.547 -3.503,2.142 -3.503,3.468L-3.503,8.722L-5.229,8.722L-5.229,0.102L-3.537,0.102L-3.537,0.968C-2.945,0.323 -2.116,0 -1.252,0C-0.373,0 0.355,0.288 0.863,0.782C1.523,1.428 1.726,2.244 1.726,3.214L1.726,8.722L0,8.722Z" style="fill:rgb(37,48,59);fill-rule:nonzero;"/>
                    </g>
                    <g transform="matrix(2.09374,0,0,2.09374,409.293,650.141)">
                        <path d="M0,-4.745C-0.322,-5.067 -0.762,-5.238 -1.269,-5.238C-1.777,-5.238 -2.2,-5.067 -2.521,-4.745C-3.046,-4.218 -3.113,-3.317 -3.113,-2.381C-3.113,-1.446 -3.046,-0.545 -2.521,-0.018C-2.2,0.305 -1.777,0.492 -1.269,0.492C-0.762,0.492 -0.322,0.305 0,-0.018C0.525,-0.545 0.592,-1.446 0.592,-2.381C0.592,-3.317 0.525,-4.218 0,-4.745M1.303,1.019C0.745,1.597 -0.102,2.04 -1.269,2.04C-2.437,2.04 -3.266,1.597 -3.825,1.019C-4.637,0.169 -4.839,-0.919 -4.839,-2.381C-4.839,-3.826 -4.637,-4.915 -3.825,-5.765C-3.266,-6.343 -2.437,-6.785 -1.269,-6.785C-0.102,-6.785 0.745,-6.343 1.303,-5.765C2.116,-4.915 2.318,-3.826 2.318,-2.381C2.318,-0.919 2.116,0.169 1.303,1.019" style="fill:rgb(37,48,59);fill-rule:nonzero;"/>
                    </g>
                    <g transform="matrix(2.09374,0,0,2.09374,424.204,636.15)">
                        <path d="M0,8.62L-1.404,8.62L-4.552,0L-2.725,0L-0.694,6.07L1.32,0L3.148,0L0,8.62Z" style="fill:rgb(37,48,59);fill-rule:nonzero;"/>
                    </g>
                    <g transform="matrix(2.09374,0,0,2.09374,442.482,644.125)">
                        <path d="M0,1.002L-2.014,1.002C-3.029,1.002 -3.554,1.461 -3.554,2.244C-3.554,3.026 -3.063,3.468 -1.98,3.468C-1.32,3.468 -0.829,3.417 -0.372,2.974C-0.118,2.72 0,2.312 0,1.7L0,1.002ZM0.034,4.811L0.034,4.029C-0.592,4.658 -1.185,4.913 -2.251,4.913C-3.317,4.913 -4.028,4.658 -4.552,4.131C-4.992,3.671 -5.229,3.009 -5.229,2.277C-5.229,0.832 -4.231,-0.205 -2.268,-0.205L0,-0.205L0,-0.817C0,-1.905 -0.542,-2.432 -1.879,-2.432C-2.826,-2.432 -3.283,-2.211 -3.757,-1.599L-4.891,-2.67C-4.078,-3.623 -3.233,-3.911 -1.811,-3.911C0.542,-3.911 1.726,-2.908 1.726,-0.953L1.726,4.811L0.034,4.811Z" style="fill:rgb(37,48,59);fill-rule:nonzero;"/>
                    </g>
                    <g transform="matrix(2.09374,0,0,2.09374,455.587,630.986)">
                        <path d="M0,11.086C-1.608,11.086 -2.352,9.93 -2.352,8.689L-2.352,3.944L-3.334,3.944L-3.334,2.619L-2.352,2.619L-2.352,0L-0.627,0L-0.627,2.619L1.032,2.619L1.032,3.944L-0.627,3.944L-0.627,8.604C-0.627,9.233 -0.322,9.607 0.321,9.607L1.032,9.607L1.032,11.086L0,11.086Z" style="fill:rgb(37,48,59);fill-rule:nonzero;"/>
                    </g>
                    <g transform="matrix(2.09374,0,0,2.09374,139.937,4.72846)">
                        <path d="M153.651,301.576L155.377,301.576L155.377,310.196L153.651,310.196L153.651,301.576ZM153.601,298.039L155.429,298.039L155.429,299.875L153.601,299.875L153.601,298.039Z" style="fill:rgb(37,48,59);fill-rule:nonzero;"/>
                    </g>
                    <g transform="matrix(2.09374,0,0,2.09374,478.859,650.141)">
                        <path d="M0,-4.745C-0.322,-5.067 -0.762,-5.238 -1.27,-5.238C-1.777,-5.238 -2.2,-5.067 -2.522,-4.745C-3.046,-4.218 -3.114,-3.317 -3.114,-2.381C-3.114,-1.446 -3.046,-0.545 -2.522,-0.018C-2.2,0.305 -1.777,0.492 -1.27,0.492C-0.762,0.492 -0.322,0.305 0,-0.018C0.524,-0.545 0.592,-1.446 0.592,-2.381C0.592,-3.317 0.524,-4.218 0,-4.745M1.303,1.019C0.744,1.597 -0.102,2.04 -1.27,2.04C-2.437,2.04 -3.266,1.597 -3.825,1.019C-4.637,0.169 -4.84,-0.919 -4.84,-2.381C-4.84,-3.826 -4.637,-4.915 -3.825,-5.765C-3.266,-6.343 -2.437,-6.785 -1.27,-6.785C-0.102,-6.785 0.744,-6.343 1.303,-5.765C2.115,-4.915 2.318,-3.826 2.318,-2.381C2.318,-0.919 2.115,0.169 1.303,1.019" style="fill:rgb(37,48,59);fill-rule:nonzero;"/>
                    </g>
                    <g transform="matrix(2.09374,0,0,2.09374,497.418,635.936)">
                        <path d="M0,8.722L0,3.468C0,2.125 -0.761,1.547 -1.726,1.547C-2.69,1.547 -3.503,2.142 -3.503,3.468L-3.503,8.722L-5.229,8.722L-5.229,0.102L-3.537,0.102L-3.537,0.968C-2.945,0.323 -2.115,0 -1.252,0C-0.372,0 0.355,0.288 0.863,0.782C1.524,1.428 1.726,2.244 1.726,3.214L1.726,8.722L0,8.722Z" style="fill:rgb(37,48,59);fill-rule:nonzero;"/>
                    </g>
                    <g transform="matrix(-1.65535,1.28201,1.28201,1.65535,378.938,622.128)">
                        <path d="M-6.857,-6.074L0.097,-6.074L1.105,-1.592L-3.194,-0.171L-6.857,-6.074Z" style="fill:rgb(0,155,132);fill-rule:nonzero;"/>
                    </g>
                    <g transform="matrix(-1.65535,1.28201,1.28201,1.65535,340.859,656.256)">
                        <path d="M-6.857,-6.074L0.097,-6.074L1.105,-1.592L-3.194,-0.172L-6.857,-6.074Z" style="fill:rgb(0,155,132);fill-rule:nonzero;"/>
                    </g>
                    <g transform="matrix(-1.65535,1.28201,1.28201,1.65535,496.842,622.128)">
                        <path d="M-6.857,-6.074L0.097,-6.074L1.105,-1.592L-3.194,-0.171L-6.857,-6.074Z" style="fill:rgb(0,155,132);fill-rule:nonzero;"/>
                    </g>
                    <g transform="matrix(-1.65535,1.28201,1.28201,1.65535,496.842,622.128)">
                        <path d="M-6.857,-6.074L0.097,-6.074L1.105,-1.592L-3.194,-0.171L-6.857,-6.074Z" style="fill:rgb(0,155,132);fill-rule:nonzero;"/>
                    </g>
                </g>
                <path id="Path62" serif:id="Path" d="M986.5,105.2C998.5,119.7 1002.3,135 1002.3,135C1006.2,152.2 1000.6,166.8 998.1,172.7C1004.4,167.9 1010.8,163.1 1017.1,158.3C1021.5,172.9 1025.8,187.4 1030.2,202C1033.5,201.7 1040.3,200.5 1047.1,195.7C1052.3,192 1055.4,187.7 1057.1,185C1049,177.5 1033.5,160.9 1026.4,134.8C1023,122.2 1022.5,111 1022.9,102.6C1032,98.9 1036.7,90 1034.8,82.6C1033.4,77.2 1027.9,70.7 1020.8,71.7C1014.9,72.6 1010,78.4 1010.1,85.5C1005.6,85.5 995,85 983.9,78.3C972.4,71.4 966.9,61.8 964.8,57.7C965.3,76.9 971.2,88 976.5,94.6C980,99.1 981.6,99.3 986.5,105.2Z" style="fill:rgb(109,108,108);fill-opacity:0.24;fill-rule:nonzero;"/>
                <path id="Shape32" serif:id="Shape" d="M940,101C938.9,105 939,109.1 940.5,113C941,114.4 942.9,114.5 943.4,113C944.6,109.4 944.6,105.6 943.5,102C942.9,100.2 940,100.9 940.6,102.8C941.6,106 941.5,109.1 940.5,112.3L943.4,112.3C942.1,108.9 941.9,105.4 942.9,101.9C943.4,99.9 940.6,99.1 940,101ZM936.4,94.8C939,93.2 942.2,93.5 944.4,95.6C945.8,96.9 947.9,94.8 946.5,93.5C943.4,90.5 938.6,89.9 934.9,92.2C933.3,93.2 934.8,95.8 936.4,94.8ZM947.2,120.2C949.1,120.2 949.1,117.2 947.2,117.2C945.2,117.2 945.2,120.2 947.2,120.2ZM953.8,111.5L953.8,111.8C953.8,112.6 954.5,113.3 955.3,113.3C956.1,113.3 956.8,112.6 956.8,111.8L956.8,111.5C956.8,110.7 956.1,110 955.3,110C954.5,110 953.8,110.6 953.8,111.5ZM954.1,119C956,119 956,116 954.1,116C952.2,116 952.2,119 954.1,119ZM912.9,105.6C911.7,109.6 911.8,113.7 913.2,117.6C913.7,119 915.6,119 916.1,117.6C917.3,114 917.4,110.2 916.4,106.6C915.9,104.7 913,105.5 913.5,107.4C914.4,110.6 914.3,113.7 913.2,116.8L916.1,116.8C914.9,113.4 914.7,109.9 915.8,106.4C916.3,104.5 913.4,103.7 912.9,105.6ZM911.2,98.1C913.3,97 916.2,97.5 917.6,99.5C918.7,101 921.3,99.5 920.2,98C917.7,94.7 913.4,93.6 909.7,95.5C908,96.4 909.5,99 911.2,98.1ZM944.9,152.5C952.6,151.1 959.3,147 964.3,140.9C965.2,139.8 963.6,138.2 962.7,139.3C958,145.1 951.7,148.9 944.3,150.3C942.9,150.6 943.5,152.8 944.9,152.5Z" style="fill:rgb(22,22,22);fill-rule:nonzero;"/>
                <path id="Path63" serif:id="Path" d="M960.5,139.5C962.3,140.1 963.8,141 965.1,142.3C966.1,143.3 967.7,141.7 966.7,140.7C965.1,139.1 963.2,138 961.1,137.3C959.7,136.9 959.1,139.1 960.5,139.5Z" style="fill:rgb(22,22,22);fill-rule:nonzero;"/>
                <path id="Path64" serif:id="Path" d="M1022.8,8.7C1035.5,26.3 1051.8,51.2 1067.3,83C1083.7,116.6 1095.7,141.9 1086.4,151.9C1074.1,165.2 1031.6,144.1 1024.8,140.6C1026.2,149.7 1029.7,164.2 1040,178.7C1045.2,186 1054.3,198.9 1071.1,204.9C1081.2,208.5 1090.2,208.3 1093.7,208C1098.4,207.7 1103.8,207.3 1109.7,204.1C1109.7,204.1 1117.4,200 1122.6,191.6C1130.5,178.8 1126.3,161.5 1120.7,139.8C1114,113.8 1105,96.5 1096.2,79.4C1094,75.2 1091.4,70.3 1087.2,64.6C1083,58.8 1079.9,55.7 1066.9,43.2C1047.6,24.5 1044.6,21.8 1038.8,17.9C1032.4,13.5 1026.7,10.6 1022.8,8.7Z" style="fill:rgb(55,27,155);fill-opacity:0.45;fill-rule:nonzero;"/>
                <path id="Path65" serif:id="Path" d="M998.7,178.8C999.5,181.1 1001.3,187.6 998.7,194.8C994.8,205.5 984,209.1 982.3,209.6C970,213.6 954.5,207.3 944.1,193.6C945.5,197.2 948.6,203.6 955,209.2C958.2,212 966.9,219.5 979.2,218.6C981.3,218.4 994.8,217.4 1001,205.7C1005.5,197.4 1004.5,187 998.7,178.8Z" style="fill:rgb(55,27,155);fill-opacity:0.43;fill-rule:nonzero;"/>
            </g>
        </g>
    </g>
</svg>
