<?xml version="1.0" encoding="UTF-8" standalone="no"?>
<!DOCTYPE svg PUBLIC "-//W3C//DTD SVG 1.1//EN" "http://www.w3.org/Graphics/SVG/1.1/DTD/svg11.dtd">
<svg width="100%" height="100%" viewBox="0 0 378 127" version="1.1" xmlns="http://www.w3.org/2000/svg" xmlns:xlink="http://www.w3.org/1999/xlink" xml:space="preserve" xmlns:serif="http://www.serif.com/" style="fill-rule:evenodd;clip-rule:evenodd;stroke-linejoin:round;stroke-miterlimit:2;">
    <g transform="matrix(1,0,0,1,-498.834,-601.552)">
        <g transform="matrix(1.41524,0,0,1.30492,-93.7974,-248.435)">
            <path d="M685.814,677.609C685.814,664.63 676.098,654.093 664.131,654.093L443.259,654.093C431.292,654.093 421.577,664.63 421.577,677.609L421.577,724.64C421.577,737.618 431.292,748.155 443.259,748.155L664.131,748.155C676.098,748.155 685.814,737.618 685.814,724.64L685.814,677.609Z" style="fill:rgb(40,43,51);fill-opacity:0.28;"/>
        </g>
        <g transform="matrix(1.41524,0,0,1.30492,-97.7974,-251.988)">
            <path d="M685.814,677.609C685.814,664.63 676.098,654.093 664.131,654.093L443.259,654.093C431.292,654.093 421.577,664.63 421.577,677.609L421.577,724.64C421.577,737.618 431.292,748.155 443.259,748.155L664.131,748.155C676.098,748.155 685.814,737.618 685.814,724.64L685.814,677.609Z" style="fill:rgb(40,43,51);"/>
        </g>
        <g transform="matrix(1,0,0,1,150.135,-215.393)">
            <path d="M467.929,835.517L463.879,835.517L456.929,864.217L449.079,835.517L445.679,835.517L437.829,864.217L430.879,835.517L426.829,835.517L435.929,871.117L439.479,871.117L447.379,842.617L455.279,871.117L458.829,871.117L467.929,835.517Z" style="fill:white;fill-rule:nonzero;"/>
            <path d="M490.029,858.817C490.029,855.017 489.529,851.567 487.029,849.017C485.329,847.317 482.979,846.217 479.979,846.217C476.979,846.217 474.629,847.317 472.929,849.017C470.429,851.567 469.929,855.017 469.929,858.817C469.929,862.617 470.429,866.067 472.929,868.617C474.629,870.317 476.979,871.417 479.979,871.417C482.979,871.417 485.329,870.317 487.029,868.617C489.529,866.067 490.029,862.617 490.029,858.817ZM486.429,858.817C486.429,861.567 486.279,864.617 484.479,866.417C483.329,867.567 481.729,868.217 479.979,868.217C478.229,868.217 476.679,867.567 475.529,866.417C473.729,864.617 473.529,861.567 473.529,858.817C473.529,856.067 473.729,853.017 475.529,851.217C476.679,850.067 478.229,849.417 479.979,849.417C481.729,849.417 483.329,850.067 484.479,851.217C486.279,853.017 486.429,856.067 486.429,858.817Z" style="fill:white;fill-rule:nonzero;"/>
            <path d="M514.129,848.517C512.379,846.767 510.579,846.217 508.229,846.217C505.379,846.217 502.679,847.467 501.329,849.517L501.329,846.517L497.729,846.517L497.729,871.117L501.329,871.117L501.329,856.017C501.329,852.267 503.629,849.417 507.229,849.417C509.129,849.417 510.129,849.867 511.479,851.217L514.129,848.517Z" style="fill:white;fill-rule:nonzero;"/>
            <path d="M539.429,871.117L529.629,855.917L537.979,846.517L533.479,846.517L522.379,859.317L522.379,835.517L518.779,835.517L518.779,871.117L522.379,871.117L522.379,864.017L527.179,858.517L534.979,871.117L539.429,871.117Z" style="fill:white;fill-rule:nonzero;"/>
            <path d="M563.329,863.917C563.329,859.317 560.379,857.667 556.079,857.267L552.129,856.917C549.029,856.667 547.829,855.417 547.829,853.317C547.829,850.817 549.729,849.267 553.329,849.267C555.879,849.267 558.129,849.867 559.879,851.217L562.229,848.867C560.029,847.067 556.879,846.217 553.379,846.217C548.129,846.217 544.329,848.917 544.329,853.417C544.329,857.467 546.879,859.617 551.679,860.017L555.729,860.367C558.579,860.617 559.829,861.817 559.829,863.967C559.829,866.867 557.329,868.317 553.279,868.317C550.229,868.317 547.579,867.517 545.629,865.467L543.229,867.867C545.929,870.467 549.179,871.417 553.329,871.417C559.279,871.417 563.329,868.667 563.329,863.917Z" style="fill:white;fill-rule:nonzero;"/>
            <path d="M589.729,871.117L589.729,855.317C589.729,849.767 586.429,846.217 580.879,846.217C578.129,846.217 575.779,847.167 573.979,849.217L573.979,835.517L570.379,835.517L570.379,871.117L573.979,871.117L573.979,855.917C573.979,851.667 576.429,849.417 580.129,849.417C583.829,849.417 586.129,851.617 586.129,855.917L586.129,871.117L589.729,871.117Z" style="fill:white;fill-rule:nonzero;"/>
            <path d="M617.279,858.817C617.279,855.017 616.779,851.567 614.279,849.017C612.579,847.317 610.229,846.217 607.229,846.217C604.229,846.217 601.879,847.317 600.179,849.017C597.679,851.567 597.179,855.017 597.179,858.817C597.179,862.617 597.679,866.067 600.179,868.617C601.879,870.317 604.229,871.417 607.229,871.417C610.229,871.417 612.579,870.317 614.279,868.617C616.779,866.067 617.279,862.617 617.279,858.817ZM613.679,858.817C613.679,861.567 613.529,864.617 611.729,866.417C610.579,867.567 608.979,868.217 607.229,868.217C605.479,868.217 603.929,867.567 602.779,866.417C600.979,864.617 600.779,861.567 600.779,858.817C600.779,856.067 600.979,853.017 602.779,851.217C603.929,850.067 605.479,849.417 607.229,849.417C608.979,849.417 610.579,850.067 611.729,851.217C613.529,853.017 613.679,856.067 613.679,858.817Z" style="fill:white;fill-rule:nonzero;"/>
            <path d="M644.529,858.817C644.529,854.967 644.029,850.867 641.529,848.367C640.229,847.067 638.029,846.217 635.529,846.217C632.829,846.217 630.579,846.817 628.579,849.417L628.579,846.517L624.979,846.517L624.979,882.117L628.579,882.117L628.579,868.217C630.579,870.767 632.829,871.417 635.529,871.417C638.029,871.417 640.229,870.567 641.529,869.267C644.029,866.767 644.529,862.667 644.529,858.817ZM640.929,858.817C640.929,863.617 640.129,868.217 634.779,868.217C629.429,868.217 628.579,863.617 628.579,858.817C628.579,854.017 629.429,849.417 634.779,849.417C640.129,849.417 640.929,854.017 640.929,858.817Z" style="fill:white;fill-rule:nonzero;"/>
            <path d="M531.379,885.517L527.329,885.517L520.379,914.217L512.529,885.517L509.129,885.517L501.279,914.217L494.329,885.517L490.279,885.517L499.379,921.117L502.929,921.117L510.829,892.617L518.729,921.117L522.279,921.117L531.379,885.517Z" style="fill:white;fill-rule:nonzero;"/>
            <path d="M540.979,887.267C540.979,885.917 539.829,884.817 538.479,884.817C537.129,884.817 536.029,885.917 536.029,887.267C536.029,888.617 537.129,889.717 538.479,889.717C539.829,889.717 540.979,888.617 540.979,887.267ZM540.279,921.117L540.279,896.517L536.679,896.517L536.679,921.117L540.279,921.117Z" style="fill:white;fill-rule:nonzero;"/>
            <path d="M569.979,921.117L560.179,905.917L568.529,896.517L564.029,896.517L552.929,909.317L552.929,885.517L549.329,885.517L549.329,921.117L552.929,921.117L552.929,914.017L557.729,908.517L565.529,921.117L569.979,921.117Z" style="fill:white;fill-rule:nonzero;"/>
            <path d="M580.429,887.267C580.429,885.917 579.279,884.817 577.929,884.817C576.579,884.817 575.479,885.917 575.479,887.267C575.479,888.617 576.579,889.717 577.929,889.717C579.279,889.717 580.429,888.617 580.429,887.267ZM579.729,921.117L579.729,896.517L576.129,896.517L576.129,921.117L579.729,921.117Z" style="fill:white;fill-rule:nonzero;"/>
        </g>
    </g>
</svg>
