<?xml version="1.0" encoding="UTF-8" standalone="no"?>
<!DOCTYPE svg PUBLIC "-//W3C//DTD SVG 1.1//EN" "http://www.w3.org/Graphics/SVG/1.1/DTD/svg11.dtd">
<svg width="100%" height="100%" viewBox="0 0 400 64" version="1.1" xmlns="http://www.w3.org/2000/svg" xmlns:xlink="http://www.w3.org/1999/xlink" xml:space="preserve" xmlns:serif="http://www.serif.com/" style="fill-rule:evenodd;clip-rule:evenodd;stroke-linejoin:round;stroke-miterlimit:2;">
    <g id="Page-1" transform="matrix(1,0,0,1,80,0)">
        <g transform="matrix(0.0376452,0,0,0.0376452,-56.9944,8.71812)">
            <path d="M447.732,-192.549L-611.116,627.43L-235.878,1429.38L-235.842,1429.46L585.997,1138.85L534.706,644.965L447.732,-192.549Z" style="fill:rgb(202,210,0);fill-rule:nonzero;"/>
        </g>
        <g transform="matrix(5.0883,0,0,5.0883,-27.4291,53.0961)">
            <g>
                <path d="M2.904,-1.572C2.82,-1.572 2.784,-1.584 2.736,-1.632L2.424,-1.944C2.376,-1.992 2.364,-2.028 2.364,-2.1L2.364,-5.34C2.364,-5.412 2.376,-5.448 2.424,-5.496L2.736,-5.808C2.784,-5.856 2.82,-5.868 2.904,-5.868L4.332,-5.868C4.524,-5.868 4.608,-5.856 4.764,-5.796L5.88,-5.364L6.54,-6.66L5.64,-7.188C5.22,-7.428 4.92,-7.512 4.332,-7.512L2.748,-7.512C2.124,-7.512 1.896,-7.404 1.572,-7.08L1.032,-6.54C0.648,-6.156 0.588,-5.976 0.588,-5.352L0.588,-2.088C0.588,-1.464 0.648,-1.284 1.032,-0.9L1.572,-0.36C1.896,-0.036 2.124,0.072 2.748,0.072L4.44,0.072C5.028,0.072 5.328,-0.012 5.748,-0.252L6.648,-0.78L5.988,-2.076L4.872,-1.644C4.716,-1.584 4.632,-1.572 4.44,-1.572L2.904,-1.572Z" style="fill:rgb(38,47,55);fill-rule:nonzero;"/>
                <path d="M11.7,-1.836C11.7,-1.764 11.688,-1.74 11.64,-1.692L11.472,-1.524C11.424,-1.476 11.4,-1.464 11.316,-1.464L9.708,-1.464C9.624,-1.464 9.6,-1.476 9.552,-1.524L9.384,-1.692C9.336,-1.74 9.324,-1.764 9.324,-1.836L9.324,-3.984C9.324,-4.056 9.336,-4.08 9.384,-4.128L9.552,-4.296C9.6,-4.344 9.624,-4.356 9.708,-4.356L11.316,-4.356C11.4,-4.356 11.424,-4.344 11.472,-4.296L11.64,-4.128C11.688,-4.08 11.7,-4.056 11.7,-3.984L11.7,-1.836ZM7.656,-1.836C7.656,-1.2 7.728,-1.032 8.112,-0.648L8.4,-0.36C8.724,-0.036 8.952,0.072 9.576,0.072L11.448,0.072C12.072,0.072 12.3,-0.036 12.624,-0.36L12.912,-0.648C13.296,-1.032 13.368,-1.2 13.368,-1.836L13.368,-3.984C13.368,-4.62 13.296,-4.788 12.912,-5.172L12.624,-5.46C12.3,-5.784 12.072,-5.892 11.448,-5.892L9.576,-5.892C8.952,-5.892 8.724,-5.784 8.4,-5.46L8.112,-5.172C7.728,-4.788 7.656,-4.62 7.656,-3.984L7.656,-1.836Z" style="fill:rgb(38,47,55);fill-rule:nonzero;"/>
                <path d="M18.252,-4.356L18.252,-5.892L16.584,-5.892C15.96,-5.892 15.732,-5.784 15.408,-5.46L15.12,-5.172C14.736,-4.788 14.664,-4.62 14.664,-3.984L14.664,0L16.332,0L16.332,-3.984C16.332,-4.056 16.344,-4.08 16.392,-4.128L16.56,-4.296C16.608,-4.344 16.632,-4.356 16.716,-4.356L18.252,-4.356Z" style="fill:rgb(38,47,55);fill-rule:nonzero;"/>
                <path d="M24.636,-3.984C24.636,-4.608 24.564,-4.788 24.18,-5.172L23.892,-5.46C23.568,-5.784 23.34,-5.892 22.716,-5.892L20.988,-5.892C20.364,-5.892 20.136,-5.784 19.812,-5.46L19.524,-5.172C19.14,-4.788 19.068,-4.62 19.068,-3.984L19.068,-1.836C19.068,-1.2 19.14,-1.032 19.524,-0.648L19.812,-0.36C20.136,-0.036 20.364,0.072 20.988,0.072L22.572,0.072C23.1,0.072 23.352,0.012 23.772,-0.216L24.66,-0.696L24.096,-1.836L22.896,-1.416C22.788,-1.38 22.716,-1.368 22.608,-1.368L21.12,-1.368C21.036,-1.368 21.012,-1.38 20.964,-1.428L20.796,-1.596C20.748,-1.644 20.736,-1.668 20.736,-1.74L20.736,-2.208L24.024,-2.208C24.468,-2.208 24.636,-2.376 24.636,-2.772L24.636,-3.984ZM20.736,-4.08C20.736,-4.152 20.748,-4.176 20.796,-4.224L20.964,-4.392C21.012,-4.44 21.036,-4.452 21.12,-4.452L22.608,-4.452C22.692,-4.452 22.716,-4.44 22.764,-4.392L22.932,-4.224C22.98,-4.176 22.992,-4.152 22.992,-4.08L22.992,-3.468L20.736,-3.468L20.736,-4.08Z" style="fill:rgb(38,47,55);fill-rule:nonzero;"/>
                <path d="M29.904,-7.44C29.568,-7.44 29.412,-7.296 29.412,-6.984L29.412,-0.456C29.412,-0.144 29.568,0 29.904,0L33.48,0C34.104,0 34.332,-0.108 34.656,-0.432L35.04,-0.816C35.424,-1.2 35.484,-1.38 35.484,-2.004L35.484,-2.496C35.484,-2.964 35.412,-3.168 35.136,-3.444L34.776,-3.804L34.992,-4.02C35.22,-4.248 35.304,-4.392 35.304,-4.86L35.304,-5.436C35.304,-6.06 35.244,-6.24 34.86,-6.624L34.476,-7.008C34.152,-7.332 33.924,-7.44 33.3,-7.44L29.904,-7.44ZM33.264,-2.976C33.348,-2.976 33.384,-2.964 33.432,-2.916L33.648,-2.7C33.696,-2.652 33.708,-2.616 33.708,-2.544L33.708,-1.956C33.708,-1.884 33.696,-1.848 33.648,-1.8L33.42,-1.572C33.372,-1.524 33.336,-1.512 33.252,-1.512L31.188,-1.512L31.188,-2.976L33.264,-2.976ZM31.188,-4.44L31.188,-5.916L33.108,-5.916C33.192,-5.916 33.228,-5.904 33.276,-5.856L33.504,-5.628C33.552,-5.58 33.564,-5.544 33.564,-5.472L33.564,-4.872C33.564,-4.8 33.552,-4.764 33.504,-4.716L33.288,-4.5C33.24,-4.452 33.204,-4.44 33.12,-4.44L31.188,-4.44Z" style="fill:rgb(38,47,55);fill-rule:nonzero;"/>
                <path d="M38.916,-5.388C38.916,-5.7 38.82,-5.82 38.448,-5.82L36.408,-5.82L36.408,-4.356L37.248,-4.356L37.248,0L38.916,0L38.916,-5.388ZM37.164,-8.208L37.164,-6.864C37.164,-6.576 37.236,-6.48 37.56,-6.48L38.544,-6.48C38.868,-6.48 38.94,-6.576 38.94,-6.864L38.94,-7.824C38.94,-8.112 38.868,-8.208 38.544,-8.208L37.164,-8.208Z" style="fill:rgb(38,47,55);fill-rule:nonzero;"/>
                <path d="M44.316,-1.836C44.316,-1.764 44.304,-1.74 44.256,-1.692L44.088,-1.524C44.04,-1.476 44.016,-1.464 43.932,-1.464L42.324,-1.464C42.24,-1.464 42.216,-1.476 42.168,-1.524L42,-1.692C41.952,-1.74 41.94,-1.764 41.94,-1.836L41.94,-3.984C41.94,-4.056 41.952,-4.08 42,-4.128L42.168,-4.296C42.216,-4.344 42.24,-4.356 42.324,-4.356L43.932,-4.356C44.016,-4.356 44.04,-4.344 44.088,-4.296L44.256,-4.128C44.304,-4.08 44.316,-4.056 44.316,-3.984L44.316,-1.836ZM40.272,-1.836C40.272,-1.2 40.344,-1.032 40.728,-0.648L41.016,-0.36C41.34,-0.036 41.568,0.072 42.192,0.072L44.064,0.072C44.688,0.072 44.916,-0.036 45.24,-0.36L45.528,-0.648C45.912,-1.032 45.984,-1.2 45.984,-1.836L45.984,-3.984C45.984,-4.62 45.912,-4.788 45.528,-5.172L45.24,-5.46C44.916,-5.784 44.688,-5.892 44.064,-5.892L42.192,-5.892C41.568,-5.892 41.34,-5.784 41.016,-5.46L40.728,-5.172C40.344,-4.788 40.272,-4.62 40.272,-3.984L40.272,-1.836Z" style="fill:rgb(38,47,55);fill-rule:nonzero;"/>
                <path d="M49.404,-5.388C49.404,-5.7 49.308,-5.82 48.936,-5.82L46.896,-5.82L46.896,-4.356L47.736,-4.356L47.736,0L49.404,0L49.404,-5.388ZM47.652,-8.208L47.652,-6.864C47.652,-6.576 47.724,-6.48 48.048,-6.48L49.032,-6.48C49.356,-6.48 49.428,-6.576 49.428,-6.864L49.428,-7.824C49.428,-8.112 49.356,-8.208 49.032,-8.208L47.652,-8.208Z" style="fill:rgb(38,47,55);fill-rule:nonzero;"/>
                <path d="M52.548,-4.224C52.548,-4.26 52.572,-4.284 52.608,-4.296L52.704,-4.332C52.74,-4.344 52.788,-4.356 52.836,-4.356L54.444,-4.356C54.528,-4.356 54.552,-4.344 54.6,-4.296L54.768,-4.128C54.816,-4.08 54.828,-4.056 54.828,-3.984L54.828,0L56.496,0L56.496,-3.984C56.496,-4.62 56.424,-4.788 56.04,-5.172L55.752,-5.46C55.428,-5.784 55.2,-5.892 54.576,-5.892L52.68,-5.892C52.332,-5.892 52.152,-5.856 51.864,-5.748L51.408,-5.58C50.988,-5.424 50.88,-5.232 50.88,-4.812L50.88,0L52.548,0L52.548,-4.224Z" style="fill:rgb(38,47,55);fill-rule:nonzero;"/>
                <path d="M57.468,-4.356L58.38,-4.356L58.38,0L60.048,0L60.048,-4.356L61.86,-4.356L61.86,-5.82L60.048,-5.82L60.048,-6.456C60.048,-6.528 60.06,-6.552 60.108,-6.6L60.276,-6.768C60.324,-6.816 60.348,-6.828 60.432,-6.828L62.064,-6.828L62.064,-8.364L60.3,-8.364C59.676,-8.364 59.448,-8.256 59.124,-7.932L58.836,-7.644C58.452,-7.26 58.38,-7.092 58.38,-6.456L58.38,-5.82L57.468,-5.82L57.468,-4.356Z" style="fill:rgb(38,47,55);fill-rule:nonzero;"/>
                <path d="M66.612,-1.836C66.612,-1.764 66.6,-1.74 66.552,-1.692L66.384,-1.524C66.336,-1.476 66.312,-1.464 66.228,-1.464L64.62,-1.464C64.536,-1.464 64.512,-1.476 64.464,-1.524L64.296,-1.692C64.248,-1.74 64.236,-1.764 64.236,-1.836L64.236,-3.984C64.236,-4.056 64.248,-4.08 64.296,-4.128L64.464,-4.296C64.512,-4.344 64.536,-4.356 64.62,-4.356L66.228,-4.356C66.312,-4.356 66.336,-4.344 66.384,-4.296L66.552,-4.128C66.6,-4.08 66.612,-4.056 66.612,-3.984L66.612,-1.836ZM62.568,-1.836C62.568,-1.2 62.64,-1.032 63.024,-0.648L63.312,-0.36C63.636,-0.036 63.864,0.072 64.488,0.072L66.36,0.072C66.984,0.072 67.212,-0.036 67.536,-0.36L67.824,-0.648C68.208,-1.032 68.28,-1.2 68.28,-1.836L68.28,-3.984C68.28,-4.62 68.208,-4.788 67.824,-5.172L67.536,-5.46C67.212,-5.784 66.984,-5.892 66.36,-5.892L64.488,-5.892C63.864,-5.892 63.636,-5.784 63.312,-5.46L63.024,-5.172C62.64,-4.788 62.568,-4.62 62.568,-3.984L62.568,-1.836Z" style="fill:rgb(38,47,55);fill-rule:nonzero;"/>
            </g>
        </g>
    </g>
</svg>
