<?xml version="1.0" encoding="UTF-8" standalone="no"?>
<svg
   width="220"
   height="240"
   viewBox="0 0 220 240"
   version="1.1"
   id="svg16"
   sodipodi:docname="2.svg"
   inkscape:version="1.4.4 (dcaf3e7, 2026-05-05)"
   xmlns:inkscape="http://www.inkscape.org/namespaces/inkscape"
   xmlns:sodipodi="http://sodipodi.sourceforge.net/DTD/sodipodi-0.dtd"
   xmlns="http://www.w3.org/2000/svg"
   xmlns:svg="http://www.w3.org/2000/svg">
  <defs
     id="defs16" />
  <sodipodi:namedview
     id="namedview16"
     pagecolor="#ffffff"
     bordercolor="#000000"
     borderopacity="0.25"
     inkscape:showpageshadow="2"
     inkscape:pageopacity="0.0"
     inkscape:pagecheckerboard="0"
     inkscape:deskcolor="#d1d1d1"
     inkscape:zoom="3.4125"
     inkscape:cx="110.03663"
     inkscape:cy="155.16484"
     inkscape:window-width="1171"
     inkscape:window-height="968"
     inkscape:window-x="0"
     inkscape:window-y="30"
     inkscape:window-maximized="0"
     inkscape:current-layer="svg16" />
  <!-- Shadow -->
  <ellipse
     cx="110"
     cy="222"
     rx="58"
     ry="10"
     fill="#000"
     opacity="0.15"
     id="ellipse1" />
  <!-- Layer 5 (bottom) -->
  <polygon
     points="110,205 52,173 52,185 110,217 168,185 168,173"
     fill="#1a4a44"
     stroke="#097E74"
     stroke-width="0.8"
     id="polygon1" />
  <polygon
     points="52,173 110,141 168,173 110,205"
     fill="#2F3D46"
     stroke="#097E74"
     stroke-width="0.8"
     id="polygon2" />
  <polygon
     points="110,141 168,173 168,185 110,205"
     fill="#263540"
     stroke="#097E74"
     stroke-width="0.8"
     id="polygon3" />
  <!-- Layer 4 -->
  <polygon
     points="110,181 52,149 52,161 110,193 168,161 168,149"
     fill="#1a4a44"
     stroke="#097E74"
     stroke-width="0.8"
     id="polygon4" />
  <polygon
     points="52,149 110,117 168,149 110,181"
     fill="#2F3D46"
     stroke="#097E74"
     stroke-width="0.8"
     id="polygon5" />
  <polygon
     points="110,117 168,149 168,161 110,181"
     fill="#263540"
     stroke="#097E74"
     stroke-width="0.8"
     id="polygon6" />
  <!-- Layer 3 (teal highlight) -->
  <polygon
     points="110,157 52,125 52,137 110,169 168,137 168,125"
     fill="#097E74"
     stroke="#B6BE00"
     stroke-width="1.2"
     id="polygon7" />
  <polygon
     points="52,125 110,93 168,125 110,157"
     fill="#0a9688"
     stroke="#B6BE00"
     stroke-width="1.2"
     id="polygon8" />
  <polygon
     points="110,93 168,125 168,137 110,157"
     fill="#0a8a7d"
     stroke="#B6BE00"
     stroke-width="1.2"
     id="polygon9" />
  <!-- Layer 2 -->
  <polygon
     points="110,133 52,101 52,113 110,145 168,113 168,101"
     fill="#1a4a44"
     stroke="#097E74"
     stroke-width="0.8"
     id="polygon10" />
  <polygon
     points="52,101 110,69 168,101 110,133"
     fill="#2F3D46"
     stroke="#097E74"
     stroke-width="0.8"
     id="polygon11" />
  <polygon
     points="110,69 168,101 168,113 110,133"
     fill="#263540"
     stroke="#097E74"
     stroke-width="0.8"
     id="polygon12" />
  <!-- Layer 1 (top — acid green) -->
  <polygon
     points="110,109 52,77 52,89 110,121 168,89 168,77"
     fill="#2a4a30"
     stroke="#B6BE00"
     stroke-width="1.5"
     id="polygon13" />
  <polygon
     points="52,77 110,45 168,77 110,109"
     fill="#B6BE00"
     stroke="#B6BE00"
     stroke-width="1"
     id="polygon14" />
  <polygon
     points="110,45 168,77 168,89 110,109"
     fill="#9aaa00"
     stroke="#B6BE00"
     stroke-width="1"
     id="polygon15" />
  <text
     x="111.24477"
     y="72.449654"
     text-anchor="middle"
     fill="#2f3d46"
     font-size="16.5892px"
     font-family="monospace"
     font-weight="bold"
     id="text15"
     style="stroke-width:1.84325">GDDR6</text>
  <text
     x="111.24477"
     y="94.568634"
     text-anchor="middle"
     fill="#2f3d46"
     font-size="13.8244px"
     font-family="monospace"
     id="text16"
     style="stroke-width:1.84325">48 GB</text>
</svg>
