<?xml version="1.0" encoding="UTF-8" standalone="no"?>
<!DOCTYPE svg PUBLIC "-//W3C//DTD SVG 1.1//EN" "http://www.w3.org/Graphics/SVG/1.1/DTD/svg11.dtd">
<svg width="100%" height="100%" viewBox="0 0 100 100" version="1.1" xmlns="http://www.w3.org/2000/svg" xmlns:xlink="http://www.w3.org/1999/xlink" xml:space="preserve" xmlns:serif="http://www.serif.com/" style="fill-rule:evenodd;clip-rule:evenodd;stroke-linejoin:round;stroke-miterlimit:2;">
    <g transform="matrix(0.476194,0,0,0.476194,44.0264,49.3354)">
        <path d="M0,40.721L2.047,45.097L52.726,27.176L49.449,-4.376L0,-4.376L0,40.721Z" style="fill:rgb(202,210,0);fill-rule:nonzero;"/>
    </g>
    <g transform="matrix(0.476194,0,0,0.476194,69.4512,101.454)">
        <path d="M0,-113.825L3.554,-79.605L-53.389,-59.469L-53.392,-59.475L-53.392,0L64.152,0L64.152,-113.825L0,-113.825Z" style="fill:rgb(37,48,59);fill-rule:nonzero;"/>
    </g>
    <g transform="matrix(0.476194,0,0,0.476194,66.5815,73.1353)">
        <path d="M0,-112.384L-73.364,-55.571L-47.365,-0.005L-47.363,0L9.58,-20.136L6.026,-54.356L0,-112.384ZM-47.365,-9.258L-68.483,-54.391L-3.173,-104.967L2.083,-54.356L5.36,-22.803L-45.318,-4.883L-47.365,-9.258Z" style="fill:rgb(0,155,132);fill-rule:nonzero;"/>
    </g>
    <g transform="matrix(0.227437,0,0,0.227437,-14.6917,-29.6703)">
        <g transform="matrix(2.09374,0,0,2.09374,284.848,492.976)">
            <path d="M0,3.17C0,3.384 0.05,3.504 0.223,3.671L1.109,4.529C1.282,4.696 1.454,4.744 1.749,4.744L5.592,4.744C5.887,4.744 6.06,4.696 6.232,4.529L7.119,3.671C7.291,3.504 7.341,3.384 7.341,3.17L7.341,-3.745C7.341,-3.96 7.291,-4.079 7.119,-4.246L6.232,-5.104C6.06,-5.271 5.887,-5.318 5.592,-5.318L1.749,-5.318C1.454,-5.318 1.282,-5.271 1.109,-5.104L0.223,-4.246C0.05,-4.079 0,-3.96 0,-3.745L0,3.17ZM10.099,3.218C10.099,4.434 9.855,4.84 9.139,5.531L8.623,6.032L10.518,10.085L8.204,10.992L5.913,7.248L1.33,7.248C0.467,7.248 -0.173,7.105 -0.863,6.437L-1.797,5.531C-2.513,4.84 -2.758,4.434 -2.758,3.218L-2.758,-3.792C-2.758,-5.009 -2.513,-5.413 -1.797,-6.106L-0.863,-7.011C-0.173,-7.68 0.467,-7.822 1.33,-7.822L6.011,-7.822C6.874,-7.822 7.514,-7.68 8.204,-7.011L9.139,-6.106C9.855,-5.413 10.099,-5.009 10.099,-3.792L10.099,3.218Z" style="fill:white;fill-rule:nonzero;"/>
        </g>
        <g transform="matrix(2.09374,0,0,2.09374,328.449,508.15)">
            <path d="M0,-11.708L2.612,-11.708L2.612,-1.811C2.612,-1.144 2.365,-0.882 1.773,-0.644L0.764,-0.238C0.295,-0.048 -0.074,0 -0.616,0L-4.754,0C-5.616,0 -6.232,-0.142 -6.922,-0.81L-7.464,-1.335C-8.178,-2.026 -8.376,-2.504 -8.376,-3.696L-8.376,-11.708L-5.765,-11.708L-5.765,-3.552C-5.765,-3.337 -5.715,-3.219 -5.542,-3.052L-5.025,-2.552C-4.852,-2.384 -4.68,-2.336 -4.385,-2.336L-1.083,-2.336C-0.887,-2.336 -0.738,-2.36 -0.616,-2.408L-0.197,-2.575C-0.05,-2.646 0,-2.694 0,-2.838L0,-11.708Z" style="fill:white;fill-rule:nonzero;"/>
        </g>
        <g transform="matrix(2.09374,0,0,2.09374,354.1,488.132)">
            <path d="M0,7.272C0.197,7.272 0.345,7.249 0.467,7.201L0.887,7.034C1.033,6.962 1.083,6.915 1.083,6.772L1.083,4.506C1.083,4.435 1.059,4.387 0.985,4.363L0.714,4.291C0.245,4.172 -0.124,4.125 -0.592,4.125L-3.548,4.125C-3.843,4.125 -3.992,4.172 -4.164,4.339L-4.557,4.721C-4.73,4.888 -4.78,5.008 -4.78,5.222L-4.78,6.175C-4.78,6.39 -4.73,6.509 -4.557,6.676L-4.164,7.058C-3.992,7.225 -3.843,7.272 -3.548,7.272L0,7.272ZM-3.769,9.561C-4.756,9.561 -5.346,9.394 -5.961,8.798L-6.529,8.25C-7.169,7.631 -7.367,7.201 -7.367,6.342L-7.367,5.055C-7.367,4.197 -7.169,3.767 -6.529,3.147L-6.086,2.718C-5.47,2.122 -4.878,1.955 -3.893,1.955L-0.764,1.955C-0.199,1.955 0.271,2.002 0.664,2.122L1.083,2.241L1.083,1.191C1.083,0.977 1.033,0.858 0.861,0.691L0.345,0.19C0.172,0.023 0,-0.025 -0.297,-0.025L-3.081,-0.025C-3.4,-0.025 -3.596,-0 -3.941,0.142L-5.863,0.953L-6.922,-0.883L-5.494,-1.765C-4.878,-2.147 -4.337,-2.289 -3.203,-2.289L0.072,-2.289C0.935,-2.289 1.55,-2.147 2.24,-1.479L2.782,-0.955C3.498,-0.262 3.695,0.214 3.695,1.407L3.695,7.75C3.695,8.417 3.448,8.68 2.856,8.917L1.847,9.324C1.378,9.513 1.009,9.561 0.467,9.561L-3.769,9.561Z" style="fill:white;fill-rule:nonzero;"/>
        </g>
        <g transform="matrix(2.09374,0,0,2.09374,382.225,478.243)">
            <path d="M0,11.948C0.197,11.948 0.345,11.924 0.467,11.877L0.887,11.71C1.035,11.638 1.083,11.59 1.083,11.446L1.083,5.606C1.083,5.439 1.035,5.367 0.887,5.319L-0.443,4.842C-0.591,4.794 -0.74,4.77 -0.936,4.77L-3.474,4.77C-3.769,4.77 -3.941,4.818 -4.114,4.985L-4.631,5.486C-4.803,5.653 -4.854,5.772 -4.854,5.987L-4.854,10.733C-4.854,10.947 -4.803,11.065 -4.631,11.233L-4.114,11.733C-3.941,11.9 -3.769,11.948 -3.474,11.948L0,11.948ZM-3.843,14.284C-4.706,14.284 -5.321,14.142 -6.011,13.474L-6.553,12.95C-7.267,12.258 -7.463,11.781 -7.463,10.589L-7.463,6.13C-7.463,4.938 -7.267,4.461 -6.553,3.769L-6.011,3.245C-5.321,2.576 -4.706,2.434 -3.843,2.434L-0.96,2.434C-0.443,2.434 -0.124,2.481 0.394,2.672L1.083,2.935L1.083,-2.336L3.695,-2.336L3.695,12.473C3.695,13.14 3.448,13.403 2.857,13.64L1.848,14.047C1.38,14.236 1.009,14.284 0.467,14.284L-3.843,14.284Z" style="fill:white;fill-rule:nonzero;"/>
        </g>
        <g transform="matrix(2.09374,0,0,2.09374,409.573,507.852)">
            <path d="M0,-11.708L0,-9.372L-2.734,-9.372C-3.029,-9.372 -3.201,-9.324 -3.374,-9.157L-3.891,-8.656C-4.064,-8.489 -4.114,-8.37 -4.114,-8.155L-4.114,0L-6.725,0L-6.725,-8.012C-6.725,-9.204 -6.527,-9.681 -5.812,-10.373L-5.272,-10.897C-4.581,-11.566 -3.966,-11.708 -3.103,-11.708L0,-11.708Z" style="fill:white;fill-rule:nonzero;"/>
        </g>
        <g transform="matrix(2.09374,0,0,2.09374,427.481,488.132)">
            <path d="M0,7.272C0.197,7.272 0.345,7.249 0.467,7.201L0.887,7.034C1.033,6.962 1.083,6.915 1.083,6.772L1.083,4.506C1.083,4.435 1.059,4.387 0.985,4.363L0.714,4.291C0.245,4.172 -0.125,4.125 -0.592,4.125L-3.549,4.125C-3.843,4.125 -3.992,4.172 -4.164,4.339L-4.557,4.721C-4.73,4.888 -4.78,5.008 -4.78,5.222L-4.78,6.175C-4.78,6.39 -4.73,6.509 -4.557,6.676L-4.164,7.058C-3.992,7.225 -3.843,7.272 -3.549,7.272L0,7.272ZM-3.769,9.561C-4.756,9.561 -5.346,9.394 -5.961,8.798L-6.529,8.25C-7.169,7.631 -7.366,7.201 -7.366,6.342L-7.366,5.055C-7.366,4.197 -7.169,3.767 -6.529,3.147L-6.086,2.718C-5.47,2.122 -4.879,1.955 -3.894,1.955L-0.764,1.955C-0.198,1.955 0.27,2.002 0.664,2.122L1.083,2.241L1.083,1.191C1.083,0.977 1.033,0.858 0.86,0.691L0.345,0.19C0.172,0.023 0,-0.025 -0.297,-0.025L-3.081,-0.025C-3.4,-0.025 -3.597,-0 -3.942,0.142L-5.863,0.953L-6.922,-0.883L-5.494,-1.765C-4.879,-2.147 -4.337,-2.289 -3.203,-2.289L0.072,-2.289C0.935,-2.289 1.551,-2.147 2.24,-1.479L2.782,-0.955C3.498,-0.262 3.694,0.214 3.694,1.407L3.694,7.75C3.694,8.417 3.448,8.68 2.856,8.917L1.847,9.324C1.378,9.513 1.009,9.561 0.467,9.561L-3.769,9.561Z" style="fill:white;fill-rule:nonzero;"/>
        </g>
        <g transform="matrix(2.09374,0,0,2.09374,446.061,483.339)">
            <path d="M0,11.708L-2.612,11.708L-2.612,1.812C-2.612,1.144 -2.365,0.882 -1.773,0.643L-0.764,0.238C-0.297,0.047 0.074,0 0.615,0L4.631,0C5.494,0 6.109,0.142 6.797,0.81L6.946,0.953L7.094,0.81C7.784,0.142 8.4,0 9.263,0L12.932,0C13.793,0 14.41,0.142 15.099,0.81L15.641,1.335C16.357,2.027 16.554,2.504 16.554,3.696L16.554,11.708L13.942,11.708L13.942,3.553C13.942,3.338 13.892,3.219 13.72,3.052L13.204,2.551C13.032,2.384 12.859,2.336 12.562,2.336L9.632,2.336C9.335,2.336 9.162,2.384 8.99,2.551L8.474,3.052C8.302,3.219 8.251,3.338 8.251,3.553L8.251,11.708L5.64,11.708L5.64,3.553C5.64,3.338 5.592,3.219 5.42,3.052L4.902,2.551C4.729,2.384 4.557,2.336 4.26,2.336L1.083,2.336C0.887,2.336 0.738,2.36 0.615,2.408L0.196,2.575C0.048,2.646 0,2.694 0,2.837L0,11.708Z" style="fill:white;fill-rule:nonzero;"/>
        </g>
        <g transform="matrix(2.09374,0,0,2.09374,281.528,552.812)">
            <path d="M0,-16.529L6.798,-16.529L6.798,-15.117L4.373,-15.117L4.373,-1.387L6.798,-1.387L6.798,0L0,0L0,-1.387L2.426,-1.387L2.426,-15.117L0,-15.117L0,-16.529Z" style="fill:rgb(202,210,0);fill-rule:nonzero;"/>
        </g>
        <g transform="matrix(2.09374,0,0,2.09374,303.798,525.405)">
            <path d="M0,13.09L-1.84,13.09L-1.84,1.866C-1.84,1.36 -1.679,1.039 -1.173,0.827L0.16,0.293C0.773,0.053 1.04,0 1.706,0L5.866,0C6.879,0 7.332,0.186 7.918,0.773L8.611,1.466C9.331,2.186 9.438,2.453 9.438,3.652L9.438,13.09L7.598,13.09L7.598,3.598C7.598,3.172 7.518,3.012 7.199,2.693L6.585,2.079C6.239,1.76 6.132,1.706 5.599,1.706L1.813,1.706C1.653,1.706 1.493,1.732 1.36,1.786L0.16,2.266C0.053,2.319 0,2.373 0,2.505L0,13.09Z" style="fill:rgb(202,210,0);fill-rule:nonzero;"/>
        </g>
        <g transform="matrix(2.09374,0,0,2.09374,333.713,537.91)">
            <path d="M0,1.305C-0.826,1.225 -1.466,1.012 -1.893,0.612C-2.346,0.186 -2.586,-0.481 -2.586,-1.521L-2.586,-2.374C-2.586,-3.44 -2.479,-3.787 -1.759,-4.507L-1.066,-5.2C-0.453,-5.787 0,-5.973 1.013,-5.973L3.733,-5.973C4.666,-5.973 5.066,-5.893 5.706,-5.492L7.199,-4.587L6.479,-3.28L4.666,-4.107C4.293,-4.267 4.026,-4.32 3.546,-4.32L1.227,-4.32C0.693,-4.32 0.587,-4.267 0.24,-3.947L-0.4,-3.307C-0.72,-2.987 -0.8,-2.827 -0.8,-2.401L-0.8,-1.414C-0.8,-0.721 -0.613,-0.481 0.133,-0.401L5.012,0.053C6.025,0.159 6.612,0.372 7.039,0.798C7.465,1.225 7.652,1.865 7.652,2.772L7.652,3.625C7.652,4.825 7.545,5.091 6.825,5.811L6.132,6.504C5.545,7.091 5.092,7.278 4.079,7.278L0.667,7.278C-0.266,7.278 -0.666,7.197 -1.333,6.797L-2.826,5.891L-2.106,4.584L-0.293,5.438C0.08,5.598 0.347,5.624 0.827,5.624L3.839,5.624C4.373,5.624 4.479,5.571 4.826,5.251L5.465,4.611C5.786,4.291 5.866,4.131 5.866,3.705L5.866,2.772C5.866,2.079 5.679,1.839 4.932,1.759L0,1.305Z" style="fill:rgb(202,210,0);fill-rule:nonzero;"/>
        </g>
        <g transform="matrix(2.09374,0,0,2.09374,369.769,522.336)">
            <path d="M0,13.009L0,14.716L-2.826,14.716C-3.839,14.716 -4.292,14.529 -4.879,13.942L-5.572,13.249C-6.292,12.53 -6.398,12.263 -6.398,11.063L-6.398,3.172L-8.585,3.172L-8.585,1.625L-6.398,1.625L-6.398,-1.707L-4.559,-1.707L-4.559,1.625L-0.293,1.625L-0.293,3.172L-4.559,3.172L-4.559,11.117C-4.559,11.543 -4.479,11.703 -4.159,12.022L-3.546,12.636C-3.199,12.956 -3.092,13.009 -2.559,13.009L0,13.009Z" style="fill:rgb(202,210,0);fill-rule:nonzero;"/>
        </g>
        <g transform="matrix(2.09374,0,0,2.09374,376.52,552.812)">
            <path d="M0,-17.302L1.653,-17.302C1.946,-17.302 2.053,-17.223 2.053,-16.929L2.053,-15.516C2.053,-15.223 1.946,-15.143 1.653,-15.143L0.4,-15.143C0.106,-15.143 0,-15.223 0,-15.516L0,-17.302ZM2.08,0L0.24,0L0.24,-11.384L-1.733,-11.384L-1.733,-12.931L1.626,-12.931C1.973,-12.931 2.08,-12.823 2.08,-12.451L2.08,0Z" style="fill:rgb(202,210,0);fill-rule:nonzero;"/>
        </g>
        <g transform="matrix(2.09374,0,0,2.09374,403.312,522.336)">
            <path d="M0,13.009L0,14.716L-2.826,14.716C-3.839,14.716 -4.292,14.529 -4.879,13.942L-5.572,13.249C-6.292,12.53 -6.399,12.263 -6.399,11.063L-6.399,3.172L-8.585,3.172L-8.585,1.625L-6.399,1.625L-6.399,-1.707L-4.559,-1.707L-4.559,1.625L-0.294,1.625L-0.294,3.172L-4.559,3.172L-4.559,11.117C-4.559,11.543 -4.479,11.703 -4.159,12.022L-3.546,12.636C-3.2,12.956 -3.093,13.009 -2.56,13.009L0,13.009Z" style="fill:rgb(202,210,0);fill-rule:nonzero;"/>
        </g>
        <g transform="matrix(2.09374,0,0,2.09374,427.199,553.148)">
            <path d="M0,-13.091L1.84,-13.091L1.84,-1.867C1.84,-1.361 1.68,-1.04 1.173,-0.827L-0.16,-0.294C-0.773,-0.054 -1.039,0 -1.706,0L-5.785,0C-6.798,0 -7.251,-0.187 -7.839,-0.774L-8.531,-1.467C-9.252,-2.186 -9.358,-2.453 -9.358,-3.653L-9.358,-13.091L-7.518,-13.091L-7.518,-3.599C-7.518,-3.173 -7.438,-3.013 -7.118,-2.694L-6.505,-2.08C-6.158,-1.76 -6.052,-1.707 -5.519,-1.707L-1.812,-1.707C-1.653,-1.707 -1.492,-1.733 -1.359,-1.787L-0.16,-2.267C-0.053,-2.32 0,-2.373 0,-2.506L0,-13.091Z" style="fill:rgb(202,210,0);fill-rule:nonzero;"/>
        </g>
        <g transform="matrix(2.09374,0,0,2.09374,453.04,522.336)">
            <path d="M0,13.009L0,14.716L-2.826,14.716C-3.839,14.716 -4.292,14.529 -4.879,13.942L-5.572,13.249C-6.292,12.53 -6.398,12.263 -6.398,11.063L-6.398,3.172L-8.585,3.172L-8.585,1.625L-6.398,1.625L-6.398,-1.707L-4.559,-1.707L-4.559,1.625L-0.293,1.625L-0.293,3.172L-4.559,3.172L-4.559,11.117C-4.559,11.543 -4.479,11.703 -4.159,12.022L-3.546,12.636C-3.199,12.956 -3.093,13.009 -2.56,13.009L0,13.009Z" style="fill:rgb(202,210,0);fill-rule:nonzero;"/>
        </g>
        <g transform="matrix(2.09374,0,0,2.09374,460.74,540.924)">
            <path d="M0,-1.574L7.492,-1.574L7.492,-3.894C7.492,-4.32 7.386,-4.479 7.066,-4.799L6.453,-5.413C6.105,-5.733 5.999,-5.786 5.466,-5.786L2,-5.786C1.467,-5.786 1.36,-5.733 1.013,-5.413L0.4,-4.799C0.08,-4.479 0,-4.32 0,-3.894L0,-1.574ZM0,0.026L0,2.292C0,2.718 0.08,2.879 0.4,3.198L1.013,3.812C1.36,4.158 1.467,4.185 2,4.185L5.572,4.185C6.053,4.185 6.345,4.131 6.718,3.971L8.372,3.172L9.118,4.451L7.625,5.358C6.986,5.758 6.612,5.838 5.679,5.838L1.733,5.838C0.72,5.838 0.267,5.652 -0.32,5.064L-1.013,4.371C-1.733,3.652 -1.84,3.385 -1.84,2.185L-1.84,-3.76C-1.84,-4.959 -1.733,-5.226 -1.013,-5.946L-0.32,-6.639C0.267,-7.226 0.72,-7.412 1.733,-7.412L5.732,-7.412C6.745,-7.412 7.198,-7.226 7.785,-6.639L8.478,-5.946C9.198,-5.226 9.305,-4.959 9.305,-3.76L9.305,-0.854C9.305,-0.241 8.984,0.026 8.478,0.026L0,0.026Z" style="fill:rgb(202,210,0);fill-rule:nonzero;"/>
        </g>
    </g>
</svg>
