<?xml version="1.0" encoding="UTF-8" standalone="no"?>
<!DOCTYPE svg PUBLIC "-//W3C//DTD SVG 1.1//EN" "http://www.w3.org/Graphics/SVG/1.1/DTD/svg11.dtd">
<svg width="100%" height="100%" viewBox="0 0 32 32" version="1.1" xmlns="http://www.w3.org/2000/svg" xmlns:xlink="http://www.w3.org/1999/xlink" xml:space="preserve" xmlns:serif="http://www.serif.com/" style="fill-rule:evenodd;clip-rule:evenodd;stroke-linejoin:round;stroke-miterlimit:2;">
    <g id="Page-1">
        <g id="Group">
            <path id="Rectangle" d="M32,3C32,1.344 30.656,0 29,0L3,0C1.344,0 0,1.344 0,3L0,29C0,30.656 1.344,32 3,32L29,32C30.656,32 32,30.656 32,29L32,3Z" style="fill:rgb(69,82,90);"/>
            <path id="S" d="M16.08,25.336C17.152,25.336 18.136,25.164 19.032,24.82C19.928,24.476 20.652,23.96 21.204,23.272C21.756,22.584 22.032,21.712 22.032,20.656C22.032,19.792 21.848,19.048 21.48,18.424C21.112,17.8 20.624,17.24 20.016,16.744C19.408,16.248 18.72,15.752 17.952,15.256C17.072,14.648 16.324,14.128 15.708,13.696C15.092,13.264 14.624,12.82 14.304,12.364C13.984,11.908 13.824,11.36 13.824,10.72C13.824,9.952 14.072,9.352 14.568,8.92C15.064,8.488 15.696,8.272 16.464,8.272C17.312,8.272 18.028,8.524 18.612,9.028C19.196,9.532 19.648,10.176 19.968,10.96C20.288,11.744 20.48,12.552 20.544,13.384L21.096,13.384C21.096,12.264 21.1,11.36 21.108,10.672C21.116,9.984 21.132,9.428 21.156,9.004L21.17,8.757C21.188,8.437 21.203,8.155 21.216,7.912L20.664,7.912C20.568,8.616 20.392,8.968 20.136,8.968C20.024,8.968 19.908,8.94 19.788,8.884C19.668,8.828 19.512,8.744 19.32,8.632C18.952,8.408 18.512,8.196 18,7.996C17.488,7.796 16.76,7.696 15.816,7.696C14.888,7.696 14.012,7.852 13.188,8.164C12.364,8.476 11.7,8.956 11.196,9.604C10.692,10.252 10.44,11.08 10.44,12.088C10.44,12.968 10.636,13.728 11.028,14.368C11.42,15.008 11.944,15.576 12.6,16.072C13.256,16.568 13.96,17.064 14.712,17.56C15.768,18.248 16.632,18.916 17.304,19.564C17.976,20.212 18.312,21.032 18.312,22.024C18.312,22.92 18.024,23.592 17.448,24.04C16.872,24.488 16.168,24.712 15.336,24.712C14.312,24.712 13.492,24.432 12.876,23.872C12.26,23.312 11.804,22.572 11.508,21.652C11.212,20.732 11.032,19.744 10.968,18.688L10.416,18.688C10.416,19.952 10.412,20.996 10.404,21.82C10.396,22.644 10.388,23.312 10.38,23.824C10.372,24.336 10.352,24.784 10.32,25.168L10.872,25.168C10.968,24.464 11.144,24.112 11.4,24.112C11.592,24.112 11.864,24.224 12.216,24.448C12.616,24.656 13.112,24.856 13.704,25.048C14.296,25.24 15.088,25.336 16.08,25.336Z" style="fill:rgb(69,82,90);fill-rule:nonzero;"/>
        </g>
        <g transform="matrix(0.0158317,0,0,0.0158317,14.938,6.20878)">
            <path d="M447.732,-192.549L-611.116,627.43L-235.878,1429.38L-235.842,1429.46L585.997,1138.85L534.706,644.965L447.732,-192.549Z" style="fill:white;fill-rule:nonzero;"/>
        </g>
    </g>
</svg>
